<?xml version="1.0" encoding="UTF-8" standalone="no"?>
<svg
   width="26"
   height="26"
   version="1.1"
   viewBox="0 0 6.8791665 6.8791671"
   xml:space="preserve"
   id="svg5"
   sodipodi:docname="shield_fsa_pq_alt.svg"
   inkscape:version="1.3.2 (091e20e, 2023-11-25, custom)"
   xmlns:inkscape="http://www.inkscape.org/namespaces/inkscape"
   xmlns:sodipodi="http://sodipodi.sourceforge.net/DTD/sodipodi-0.dtd"
   xmlns="http://www.w3.org/2000/svg"
   xmlns:svg="http://www.w3.org/2000/svg"><defs
     id="defs5"><clipPath
       id="clip0"><rect
         x="1705"
         y="751"
         width="1585"
         height="1591"
         id="rect1" /></clipPath><clipPath
       id="clip0-3"><rect
         x="1631"
         y="275"
         width="1036"
         height="1040"
         id="rect1-8" /></clipPath><clipPath
       id="clip0-2"><rect
         x="151"
         y="696"
         width="944"
         height="1128"
         id="rect1-6" /></clipPath><clipPath
       id="clip0-38"><rect
         x="3061"
         y="737"
         width="931"
         height="1110"
         id="rect1-0" /></clipPath></defs><sodipodi:namedview
     id="namedview5"
     pagecolor="#ffffff"
     bordercolor="#000000"
     borderopacity="0.25"
     inkscape:showpageshadow="2"
     inkscape:pageopacity="0.0"
     inkscape:pagecheckerboard="0"
     inkscape:deskcolor="#d1d1d1"
     inkscape:document-units="mm"
     inkscape:zoom="16.867383"
     inkscape:cx="11.293987"
     inkscape:cy="17.607948"
     inkscape:window-width="1520"
     inkscape:window-height="916"
     inkscape:window-x="46"
     inkscape:window-y="312"
     inkscape:window-maximized="0"
     inkscape:current-layer="svg5" /><path
     d="M 0.21747009,0.18063912 H 6.6708809 V 3.4852672 c 0,1.7820906 -1.4446148,3.2267054 -3.2267053,3.2267054 -1.7820908,0 -3.22670551,-1.4446148 -3.22670551,-3.2267054 z"
     stroke="#000000"
     stroke-width="0.12987"
     stroke-linecap="butt"
     stroke-linejoin="miter"
     stroke-miterlimit="8"
     stroke-opacity="1"
     fill="#ffffff"
     fill-rule="evenodd"
     fill-opacity="1"
     id="path1" /><path
     d="m 0.33004997,3.4159975 c 0,-1.7033258 1.38787713,-3.08410556 3.09995773,-3.08410556 1.7120808,0 3.0999578,1.38077976 3.0999578,3.08410556 0,1.7033235 -1.4256809,1.7802657 -3.1377609,1.7802657 -1.7120806,0 -3.06215463,-0.076943 -3.06215463,-1.7802657 z"
     fill="#000000"
     fill-rule="evenodd"
     fill-opacity="1"
     id="path3"
     sodipodi:nodetypes="sssss"
     style="fill:#000000;fill-opacity:1;stroke-width:0.00726678" /><path
     style="fill:#003055;fill-opacity:1;stroke-width:0.0123709"
     d="M 3.1482693,6.6661962 C 2.625409,6.603472 2.2213108,6.4714199 1.8146553,6.2303989 1.0701838,5.7891589 0.52032638,5.038358 0.33493359,4.2099193 0.25619558,3.8580682 0.2610771,3.9941842 0.25659999,2.025721 L 0.25251271,0.22892795 H 3.4386084 6.6247011 V 1.9267585 C 6.6246947,2.9777803 6.6199011,3.676427 6.6121331,3.760662 6.5416235,4.5246403 6.2165224,5.2191485 5.6817352,5.7482587 5.1940025,6.2308121 4.5949326,6.533468 3.9091355,6.6437913 3.7903532,6.662902 3.2527642,6.678732 3.1482792,6.666194 Z M 4.3854335,5.1528291 C 5.1269374,5.0994068 5.5978819,4.9684132 5.921472,4.7255809 6.2169298,4.5038597 6.387438,4.1918568 6.4529909,3.7529888 6.4784353,3.5826336 6.4721378,3.1733216 6.4409297,2.9689602 6.3699018,2.5038911 6.2016236,2.0722075 5.9466538,1.7009989 5.8159101,1.5106523 5.7397784,1.4197578 5.5681778,1.2491411 5.2394775,0.92232514 4.8597117,0.68438364 4.4287344,0.53522704 4.116978,0.42733184 3.8627844,0.38090204 3.5194183,0.36913584 2.7883779,0.34408504 2.0868879,0.57762804 1.5090257,1.0384448 1.3829221,1.1390072 1.1553802,1.3674731 1.0463678,1.5029848 0.68550042,1.9515706 0.46164848,2.4892055 0.39411158,3.0695414 c -0.0244298,0.2099115 -0.0176206,0.6074984 0.013267,0.7747663 0.0844077,0.4570892 0.28977515,0.7719746 0.63872702,0.9793444 0.344785,0.2048926 0.8399684,0.3110013 1.5918947,0.3411113 0.3274898,0.013115 1.5120534,0.00503 1.747433,-0.011933 z"
     id="path2" /><path
     style="font-size:1.41158px;font-family:Consolas;-inkscape-font-specification:Consolas;fill:#ffffff;stroke-width:0.389832"
     d="m 1.0886599,0.69624044 q 0,0.057668 -0.024126,0.114615 -0.024127,0.056226 -0.074792,0.1009189 -0.0506658,0.044692 -0.12947811,0.072806 -0.0788128,0.027392 -0.18818571,0.027392 H 0.54179549 V 1.3500508 H 0.3986457 V 0.40790064 h 0.29595014 q 0.0780087,0 0.14958346,0.015858 0.0715749,0.015138 0.12545713,0.049739 0.0546866,0.034601 0.0868552,0.089386 0.032168,0.054784 0.032168,0.1333568 z m -0.14877935,0.00576 q 0,-0.090827 -0.0667501,-0.1391238 -0.065945,-0.048298 -0.18496878,-0.048298 H 0.54179549 v 0.3878168 h 0.13349924 q 0.12706552,0 0.19542359,-0.049738 0.0691619,-0.049739 0.0691622,-0.150657 z"
     id="text2"
     aria-label="P" /><path
     style="font-size:1.31517px;font-family:Consolas;-inkscape-font-specification:Consolas;fill:#ffffff;stroke-width:0.363207"
     d="m 5.9668362,1.2417223 q -0.080413,-0.00976 -0.1399498,-0.042955 -0.059537,-0.033192 -0.09897,-0.087212 -0.039433,-0.054671 -0.058764,-0.12821546 -0.01933,-0.074195 -0.01933,-0.1640117 0,-0.1158495 0.031701,-0.2004587 0.031701,-0.084609 0.085825,-0.1392798 0.054898,-0.055322 0.1275786,-0.081356 0.072681,-0.026685 0.1538675,-0.026685 0.097424,0 0.1693314,0.029939 0.072681,0.029288 0.1206199,0.08526 0.047939,0.055322 0.071135,0.1347239 0.023969,0.078752 0.023969,0.1776793 0,0.1041345 -0.026289,0.1828861 -0.026289,0.078101 -0.071908,0.13277126 -0.045618,0.054671 -0.1074752,0.085911 -0.061856,0.03124 -0.132991,0.041003 0.011595,0.057273 0.054124,0.091768 0.042526,0.035145 0.1198467,0.035145 0.037114,0 0.072681,-0.01041 0.036341,-0.01041 0.073454,-0.035145 l 0.061084,0.080053 q -0.051031,0.035145 -0.1051562,0.050114 -0.054124,0.014969 -0.1113414,0.014969 -0.061856,0 -0.1136604,-0.014318 -0.051805,-0.014322 -0.090464,-0.042959 -0.037886,-0.027986 -0.061083,-0.070942 -0.023196,-0.042304 -0.027835,-0.098277 z M 6.2908084,0.81281874 q 0,-0.075498 -0.013918,-0.1373273 -0.013144,-0.062481 -0.043299,-0.1067377 -0.030155,-0.044908 -0.078093,-0.06964 -0.047166,-0.024733 -0.1144346,-0.024733 -0.064949,0 -0.1121143,0.026034 -0.046392,0.026034 -0.076547,0.070942 -0.030155,0.044257 -0.044846,0.1041344 -0.014691,0.059226 -0.014691,0.1262631 0,0.07745 0.013917,0.1405813 0.013918,0.062481 0.043299,0.10738856 0.030155,0.044908 0.07732,0.069641 0.047164,0.02408 0.1136603,0.02408 0.064949,0 0.1121144,-0.026033 0.047164,-0.026034 0.077319,-0.070942 0.030929,-0.044908 0.045618,-0.10478506 0.014691,-0.060528 0.014691,-0.1288663 z"
     id="text2-4"
     aria-label="Q" /><path
     style="font-size:185.966px;font-family:Dubai;-inkscape-font-specification:Dubai;fill:#ffffff;stroke-width:0.469259"
     d="m 2.9918308,5.4474022 0.2500319,0.8909923 v 0.00833 h -0.098374 l -0.069681,-0.25675 H 2.7909851 l -0.068656,0.25675 h -0.094275 v -0.00833 L 2.877062,5.4474022 Z M 2.8196776,5.984496 H 3.0451161 L 2.9323966,5.5681445 Z M 3.4375838,6.2356944 H 3.7634452 V 6.3467216 H 3.3433093 V 5.4474022 h 0.094274 z M 4.2419892,5.4474022 V 5.5584294 H 4.0124516 V 6.3467216 H 3.9181777 V 5.5584294 H 3.6876152 V 5.4474022 Z"
     id="text2-8-1"
     aria-label="ALT" /></svg>
