<?xml version="1.0" encoding="UTF-8" standalone="no"?>
<svg
   width="19.372995"
   height="27.52305"
   version="1.1"
   viewBox="0 0 5.1257715 7.2821409"
   xml:space="preserve"
   id="svg5"
   sodipodi:docname="shield_deo_tdh_1.svg"
   inkscape:version="1.3 (0e150ed, 2023-07-21)"
   xmlns:inkscape="http://www.inkscape.org/namespaces/inkscape"
   xmlns:sodipodi="http://sodipodi.sourceforge.net/DTD/sodipodi-0.dtd"
   xmlns="http://www.w3.org/2000/svg"
   xmlns:svg="http://www.w3.org/2000/svg"><defs
     id="defs5"><clipPath
       id="clip0"><rect
         x="1705"
         y="751"
         width="1585"
         height="1591"
         id="rect1" /></clipPath><clipPath
       id="clip0-3"><rect
         x="1631"
         y="275"
         width="1036"
         height="1040"
         id="rect1-8" /></clipPath><clipPath
       id="clip0-2"><rect
         x="151"
         y="696"
         width="944"
         height="1128"
         id="rect1-6" /></clipPath></defs><sodipodi:namedview
     id="namedview5"
     pagecolor="#ffffff"
     bordercolor="#000000"
     borderopacity="0.25"
     inkscape:showpageshadow="2"
     inkscape:pageopacity="0.0"
     inkscape:pagecheckerboard="0"
     inkscape:deskcolor="#d1d1d1"
     inkscape:document-units="mm"
     inkscape:zoom="24.417334"
     inkscape:cx="10.66865"
     inkscape:cy="14.723147"
     inkscape:window-width="1088"
     inkscape:window-height="1378"
     inkscape:window-x="1148"
     inkscape:window-y="27"
     inkscape:window-maximized="0"
     inkscape:current-layer="g1" /><g
     id="g1"
     transform="matrix(0.12835685,0,0,0.12835685,2.2753926,3.2602634)"><g
       transform="matrix(4.8265845,0,0,4.8265845,-837.82224,-637.32881)"
       id="g1599"><path
         style="color:#000000;font-style:normal;font-variant:normal;font-weight:normal;font-stretch:normal;font-size:medium;line-height:normal;font-family:sans-serif;font-variant-ligatures:normal;font-variant-position:normal;font-variant-caps:normal;font-variant-numeric:normal;font-variant-alternates:normal;font-variant-east-asian:normal;font-feature-settings:normal;font-variation-settings:normal;text-indent:0;text-align:start;text-decoration:none;text-decoration-line:none;text-decoration-style:solid;text-decoration-color:#000000;letter-spacing:normal;word-spacing:normal;text-transform:none;writing-mode:lr-tb;direction:ltr;text-orientation:mixed;dominant-baseline:auto;baseline-shift:baseline;text-anchor:start;white-space:normal;shape-padding:0;shape-margin:0;inline-size:0;clip-rule:nonzero;display:inline;overflow:visible;visibility:visible;isolation:auto;mix-blend-mode:normal;color-interpolation:sRGB;color-interpolation-filters:linearRGB;solid-color:#000000;solid-opacity:1;vector-effect:none;fill:#194333;fill-opacity:1;fill-rule:nonzero;stroke:none;stroke-width:0.750001;stroke-linecap:butt;stroke-linejoin:miter;stroke-miterlimit:4;stroke-dasharray:none;stroke-dashoffset:0;stroke-opacity:1;color-rendering:auto;image-rendering:auto;shape-rendering:auto;text-rendering:auto;enable-background:accumulate;stop-color:#000000;stop-opacity:1"
         d="m 170.70961,127.1591 c -0.28851,0.005 -0.41654,0.15692 -0.42168,0.42168 v 7.7804 c 0.0265,0.37258 0.19947,0.63203 0.47078,0.81546 l 1.64512,0.96273 1.64512,0.96273 1.64486,-0.96273 1.64486,-0.96273 c 0.28215,-0.19366 0.4562,-0.45489 0.47129,-0.81546 v -7.7804 c -0.005,-0.26476 -0.13368,-0.41668 -0.4222,-0.42168 h -3.1843 -0.30902 z"
         id="path1601" /><path
         style="color:#000000;font-style:normal;font-variant:normal;font-weight:normal;font-stretch:normal;font-size:medium;line-height:normal;font-family:sans-serif;font-variant-ligatures:normal;font-variant-position:normal;font-variant-caps:normal;font-variant-numeric:normal;font-variant-alternates:normal;font-variant-east-asian:normal;font-feature-settings:normal;font-variation-settings:normal;text-indent:0;text-align:start;text-decoration:none;text-decoration-line:none;text-decoration-style:solid;text-decoration-color:#000000;letter-spacing:normal;word-spacing:normal;text-transform:none;writing-mode:lr-tb;direction:ltr;text-orientation:mixed;dominant-baseline:auto;baseline-shift:baseline;text-anchor:start;white-space:normal;shape-padding:0;shape-margin:0;inline-size:0;clip-rule:nonzero;display:inline;overflow:visible;visibility:visible;isolation:auto;mix-blend-mode:normal;color-interpolation:sRGB;color-interpolation-filters:linearRGB;solid-color:#000000;solid-opacity:1;vector-effect:none;fill:#194333;fill-opacity:1;fill-rule:nonzero;stroke:none;stroke-width:0.750001;stroke-linecap:butt;stroke-linejoin:miter;stroke-miterlimit:4;stroke-dasharray:none;stroke-dashoffset:0;stroke-opacity:1;color-rendering:auto;image-rendering:auto;shape-rendering:auto;text-rendering:auto;enable-background:accumulate;stop-color:#000000;stop-opacity:1"
         d="m 170.70312,126.7832 c -0.20908,0.004 -0.42964,0.0715 -0.58203,0.23047 -0.15239,0.15901 -0.20526,0.36915 -0.20898,0.56055 v 0.002 7.79883 l 0.002,0.0137 c 0.0338,0.47548 0.2888,0.86375 0.63477,1.09766 l 0.01,0.008 1.65625,0.96875 1.83399,1.07422 1.83398,-1.07422 1.65625,-0.96875 0.0117,-0.008 c 0.35255,-0.24198 0.61496,-0.63601 0.63477,-1.10938 v -0.008 -7.79102 -0.004 c -0.004,-0.19175 -0.0564,-0.40169 -0.20899,-0.56055 -0.15256,-0.15886 -0.37295,-0.22684 -0.58203,-0.23047 h -0.004 -3.1875 -0.30859 -3.1875 z"
         id="path1603"
         sodipodi:nodetypes="cssccccccccccccccscccccc" /></g><path
       id="path1607"
       style="color:#000000;font-style:normal;font-variant:normal;font-weight:normal;font-stretch:normal;font-size:medium;line-height:normal;font-family:sans-serif;font-variant-ligatures:normal;font-variant-position:normal;font-variant-caps:normal;font-variant-numeric:normal;font-variant-alternates:normal;font-variant-east-asian:normal;font-feature-settings:normal;font-variation-settings:normal;text-indent:0;text-align:start;text-decoration:none;text-decoration-line:none;text-decoration-style:solid;text-decoration-color:#000000;letter-spacing:normal;word-spacing:normal;text-transform:none;writing-mode:lr-tb;direction:ltr;text-orientation:mixed;dominant-baseline:auto;baseline-shift:baseline;text-anchor:start;white-space:normal;shape-padding:0;shape-margin:0;inline-size:0;clip-rule:nonzero;display:inline;overflow:visible;visibility:visible;isolation:auto;mix-blend-mode:normal;color-interpolation:sRGB;color-interpolation-filters:linearRGB;solid-color:#000000;solid-opacity:1;vector-effect:none;fill:#ffffff;fill-opacity:1;fill-rule:nonzero;stroke:none;stroke-width:1.27703px;stroke-linecap:butt;stroke-linejoin:miter;stroke-miterlimit:4;stroke-dasharray:none;stroke-dashoffset:0;stroke-opacity:1;color-rendering:auto;image-rendering:auto;shape-rendering:auto;text-rendering:auto;enable-background:accumulate;stop-color:#000000"
       d="m -13.89101,-24.1256 c -0.80662,0.0145 -1.50377,0.24857 -1.97788,0.74325 -0.47397,0.49472 -0.6666,1.17614 -0.68094,1.91557 v 0.01 37.57771 0.029 c 0.14046,1.97354 1.11991,3.44097 2.55655,4.41227 l 0.01,0.0193 7.96652,4.65664 8.25829,4.83629 8.25833,-4.83629 7.96647,-4.65664 0.0193,-0.0193 c 1.48171,-1.01701 2.46571,-2.49983 2.5466,-4.43221 v -0.0193 -37.56777 -0.01 c -0.0145,-0.74011 -0.20368,-1.42863 -0.67838,-1.92311 -0.47493,-0.49448 -1.17373,-0.72181 -1.98039,-0.73576 h -0.01 H 2.9892 1.49764 -13.87662 Z m 0.01,1.27205 h 0.01 15.36432 1.49151 15.37431 c 0.56809,0.0145 0.87815,0.15445 1.06504,0.34944 0.18968,0.19789 0.31904,0.51717 0.32917,1.05505 v 37.52032 c -0.0647,1.54827 -0.75574,2.57706 -1.99767,3.42953 l -3.85109,2.25725 -3.54676,0.29442 2.11259,-4.30251 -6.94135,3.26991 -3.36471,-4.14536 -3.36717,4.18779 -6.92393,-3.28488 1.97046,4.30999 -3.07787,-0.2143 -4.05308,-2.37202 c -1.18236,-0.79943 -1.87242,-1.82638 -1.98787,-3.44946 v -37.49045 -0.0193 c 0.0145,-0.52286 0.14335,-0.85083 0.32917,-1.04505 0.18775,-0.19596 0.48826,-0.33689 1.06503,-0.34896 z" /><g
       aria-label="T. D. H."
       transform="matrix(4.7407317,0,0,4.913992,-837.82224,-637.32881)"
       id="text1455-4"
       style="font-style:normal;font-variant:normal;font-weight:bold;font-stretch:normal;font-size:1.63943px;line-height:0.75;font-family:'Roadgeek 2005 Series D';-inkscape-font-specification:'Roadgeek 2005 Series D Bold';letter-spacing:0px;word-spacing:0px;display:inline;fill:#000000;fill-opacity:1;stroke:none;stroke-width:0.0409858"><path
         d="m 175.08968,125.6402 v 0.88202 h -0.21149 v -0.88202 h -0.30493 v -0.21968 h 0.81643 v 0.21968 z"
         style="font-style:normal;font-variant:normal;font-weight:bold;font-stretch:normal;font-size:1.63943px;font-family:'Roadgeek 2005 Series EM';-inkscape-font-specification:'Roadgeek 2005 Series EM Bold';text-align:center;text-anchor:middle;fill:#ffffff;fill-opacity:1;stroke-width:0.0409858"
         id="path1610" /><path
         d="m 175.69911,126.43041 q 0,0.0459 -0.0311,0.0787 -0.0295,0.0328 -0.077,0.0328 -0.0475,0 -0.0803,-0.0328 -0.0311,-0.0328 -0.0311,-0.0787 0,-0.0475 0.0311,-0.0803 0.0328,-0.0328 0.0803,-0.0328 0.0475,0 0.077,0.0328 0.0311,0.0328 0.0311,0.0803 z"
         style="font-style:normal;font-variant:normal;font-weight:bold;font-stretch:normal;font-size:1.63943px;font-family:'Roadgeek 2005 Series EM';-inkscape-font-specification:'Roadgeek 2005 Series EM Bold';text-align:center;text-anchor:middle;fill:#ffffff;fill-opacity:1;stroke-width:0.0409858"
         id="path1612" /><path
         d="m 177.368,125.97137 q 0,0.12623 -0.0393,0.22788 -0.0393,0.10164 -0.11148,0.17378 -0.0705,0.0705 -0.1705,0.10984 -0.1,0.0393 -0.22296,0.0393 h -0.34264 v -1.1017 h 0.34264 q 0.1246,0 0.2246,0.0393 0.10001,0.0393 0.1705,0.11148 0.0721,0.0721 0.10984,0.17378 0.0393,0.10164 0.0393,0.22624 z m -0.21641,0 q 0,-0.15739 -0.0836,-0.24428 -0.0836,-0.0869 -0.2328,-0.0869 h -0.13771 v 0.66233 h 0.13771 q 0.14919,0 0.2328,-0.0869 0.0836,-0.0869 0.0836,-0.24427 z"
         style="font-style:normal;font-variant:normal;font-weight:bold;font-stretch:normal;font-size:1.63943px;font-family:'Roadgeek 2005 Series EM';-inkscape-font-specification:'Roadgeek 2005 Series EM Bold';text-align:center;text-anchor:middle;fill:#ffffff;fill-opacity:1;stroke-width:0.0409858"
         id="path1614" /><path
         d="m 177.74199,126.43041 q 0,0.0459 -0.0311,0.0787 -0.0295,0.0328 -0.0771,0.0328 -0.0475,0 -0.0803,-0.0328 -0.0311,-0.0328 -0.0311,-0.0787 0,-0.0475 0.0311,-0.0803 0.0328,-0.0328 0.0803,-0.0328 0.0476,0 0.0771,0.0328 0.0311,0.0328 0.0311,0.0803 z"
         style="font-style:normal;font-variant:normal;font-weight:bold;font-stretch:normal;font-size:1.63943px;font-family:'Roadgeek 2005 Series EM';-inkscape-font-specification:'Roadgeek 2005 Series EM Bold';text-align:center;text-anchor:middle;fill:#ffffff;fill-opacity:1;stroke-width:0.0409858"
         id="path1616" /><path
         d="m 179.19448,126.52222 v -0.482 h -0.45412 v 0.482 h -0.21641 v -1.09842 h 0.21641 v 0.39674 h 0.45412 v -0.39674 h 0.2164 v 1.09842 z"
         style="font-style:normal;font-variant:normal;font-weight:bold;font-stretch:normal;font-size:1.63943px;font-family:'Roadgeek 2005 Series EM';-inkscape-font-specification:'Roadgeek 2005 Series EM Bold';text-align:center;text-anchor:middle;fill:#ffffff;fill-opacity:1;stroke-width:0.0409858"
         id="path1618" /><path
         d="m 179.8265,126.43041 q 0,0.0459 -0.0311,0.0787 -0.0295,0.0328 -0.0771,0.0328 -0.0475,0 -0.0803,-0.0328 -0.0311,-0.0328 -0.0311,-0.0787 0,-0.0475 0.0311,-0.0803 0.0328,-0.0328 0.0803,-0.0328 0.0476,0 0.0771,0.0328 0.0311,0.0328 0.0311,0.0803 z"
         style="font-style:normal;font-variant:normal;font-weight:bold;font-stretch:normal;font-size:1.63943px;font-family:'Roadgeek 2005 Series EM';-inkscape-font-specification:'Roadgeek 2005 Series EM Bold';text-align:center;text-anchor:middle;fill:#ffffff;fill-opacity:1;stroke-width:0.0409858"
         id="path1620" /></g></g></svg>
