<?xml version="1.0" encoding="UTF-8" standalone="no"?>
<svg
   width="8.5856009mm"
   height="9.0217228mm"
   version="1.1"
   viewBox="0 0 8.5856006 9.0217232"
   xml:space="preserve"
   id="svg5"
   sodipodi:docname="shield_fsa_tn.svg"
   inkscape:version="1.3.2 (091e20e, 2023-11-25, custom)"
   xmlns:inkscape="http://www.inkscape.org/namespaces/inkscape"
   xmlns:sodipodi="http://sodipodi.sourceforge.net/DTD/sodipodi-0.dtd"
   xmlns="http://www.w3.org/2000/svg"
   xmlns:svg="http://www.w3.org/2000/svg"><defs
     id="defs5"><clipPath
       id="clip0"><rect
         x="1705"
         y="751"
         width="1585"
         height="1591"
         id="rect1" /></clipPath><clipPath
       id="clip0-3"><rect
         x="1631"
         y="275"
         width="1036"
         height="1040"
         id="rect1-8" /></clipPath><clipPath
       id="clip0-38"><rect
         x="-1567"
         y="632"
         width="1709"
         height="1710"
         id="rect1-0" /></clipPath><clipPath
       id="clip0-8"><rect
         x="2415"
         y="169"
         width="1036"
         height="1036"
         id="rect1-02" /></clipPath><clipPath
       id="clip1"><rect
         x="-0.45454499"
         y="-2770.8201"
         width="490451"
         height="346364"
         id="rect2" /></clipPath><clipPath
       id="clip3"><rect
         x="1088360"
         y="1891850"
         width="487602"
         height="340822"
         id="rect3" /></clipPath><clipPath
       id="clip0-39"><rect
         x="2869"
         y="527"
         width="1036"
         height="1040"
         id="rect1-05" /></clipPath><clipPath
       id="clip0-37"><rect
         x="1196"
         y="1301"
         width="1040"
         height="1041"
         id="rect1-9" /></clipPath><clipPath
       id="clip0-4"><rect
         x="3212"
         y="696"
         width="1068"
         height="1068"
         id="rect1-91" /></clipPath></defs><sodipodi:namedview
     id="namedview5"
     pagecolor="#ffffff"
     bordercolor="#000000"
     borderopacity="0.25"
     inkscape:showpageshadow="2"
     inkscape:pageopacity="0.0"
     inkscape:pagecheckerboard="0"
     inkscape:deskcolor="#d1d1d1"
     inkscape:document-units="mm"
     inkscape:zoom="13.978353"
     inkscape:cx="9.2643246"
     inkscape:cy="24.216015"
     inkscape:window-width="2560"
     inkscape:window-height="1387"
     inkscape:window-x="-8"
     inkscape:window-y="22"
     inkscape:window-maximized="1"
     inkscape:current-layer="svg5" /><rect
     style="fill:#ffffff;fill-opacity:1;stroke:none;stroke-width:0.444;stroke-linejoin:round"
     id="rect4"
     width="8.6122751"
     height="9.0476208"
     x="-0.03785615"
     y="0"
     ry="1.0789003" /><path
     style="fill:#203d1c;fill-opacity:1;stroke-width:0.0158427"
     d="M 1.010505,9.0099064 C 0.84079912,8.9920457 0.63851369,8.917376 0.49025685,8.817869 0.39990769,8.7572285 0.25281078,8.6071968 0.18856934,8.5101634 0.12593129,8.4155525 0.06641923,8.2808346 0.03244626,8.1567483 0.0082113,8.0682301 0.00750081,8.0524219 0.0037973,7.5192737 L 0,6.972568 0.05657338,6.969318 0.11314677,6.966068 0.13106967,6.891317 c 0.009853,-0.041113 0.0183149,-0.1158549 0.0187947,-0.1660932 7.2978e-4,-0.075552 0.005604,-0.1008526 0.0282867,-0.1463569 0.0623535,-0.125128 0.23311728,-0.2180522 0.65086045,-0.3541782 0.12330529,-0.04018 0.21730208,-0.064865 0.24700328,-0.064865 0.026371,0 0.1248458,0.016818 0.2188329,0.037376 0.093987,0.020557 0.1717461,0.037384 0.1727984,0.037395 0.00105,1.04e-5 0.00331,0.1621936 0.00502,0.3604069 0.00411,0.4764495 0.020756,0.6464826 0.083873,0.8569487 0.040349,0.1345405 0.083573,0.2209148 0.2351873,0.4699724 0.1588855,0.2610014 0.2612025,0.4024395 0.3943478,0.5451275 0.1439348,0.1542514 0.1877307,0.2526621 0.2028871,0.4558947 l 0.00736,0.098778 -0.6502651,-0.00147 C 1.3884118,9.0194728 1.0574091,9.0147671 1.0104958,9.0098832 Z M 2.9950652,8.9719824 C 2.9506211,8.8961467 2.9378825,8.8294501 2.9378825,8.6726004 v -0.141569 l 0.034705,0.00635 c 0.063152,0.011599 0.1575947,0.059804 0.1905503,0.097337 0.045396,0.051697 0.054354,0.079047 0.063814,0.1947822 0.00457,0.055799 0.011697,0.1218671 0.015859,0.1468327 l 0.00757,0.045384 H 3.1372996 3.0242175 Z M 3.841538,8.9194924 C 3.7965762,8.8632654 3.7491285,8.7971951 3.7361005,8.7726593 l -0.023688,-0.044615 0.00103,-0.6692966 0.00103,-0.6692968 0.02715,-0.046328 C 3.7726511,7.2901611 3.8686271,7.1956804 3.9165788,7.1708836 3.9343968,7.1616652 4.06867,7.0707758 4.2149637,6.9688975 4.8157632,6.5505031 5.0332084,6.4040169 5.1595491,6.3325592 5.2326913,6.2911908 5.3279574,6.2317945 5.3712507,6.2005673 c 0.1267806,-0.091445 0.1318441,-0.094036 0.1839088,-0.094096 0.041812,-4.75e-5 0.06072,0.0081 0.1281446,0.055186 0.1499896,0.1047574 0.2647527,0.2431906 0.3507967,0.4231499 0.035476,0.074196 0.038105,0.076896 0.074752,0.076744 0.063027,-2.564e-4 0.1709529,-0.030353 0.2390554,-0.06665 C 6.4348264,6.5485896 6.5062002,6.4810395 6.6371073,6.3212095 6.8645547,6.0435087 7.0618696,5.8880087 7.3352572,5.7710116 7.6457008,5.6381558 7.7731386,5.3913629 7.7071937,5.050728 7.6922831,4.973711 7.6899101,4.8588977 7.6899101,4.2147747 c 0,-0.8473456 -0.00582,-0.7907918 0.090321,-0.8764882 0.068052,-0.060654 0.096594,-0.124058 0.09544,-0.2120105 C 7.8737585,2.9811047 7.6216583,2.5747129 7.4056749,2.368655 7.2507607,2.22086 7.041623,2.1020638 6.7875574,2.0175465 6.5672366,1.9442543 6.3845667,1.9155184 6.0611572,1.903275 5.8419359,1.8949723 5.7775152,1.904496 5.481073,1.9890338 5.3674562,2.0214328 5.2461025,2.0530906 5.2113972,2.0593836 5.0939263,2.0806855 5.0891642,2.0779536 4.8867439,1.8731461 4.7546716,1.7395165 4.6630136,1.6579883 4.5503638,1.573942 4.3293303,1.4090327 4.1085462,1.2651622 3.9912127,1.209581 3.8749973,1.1545293 3.5153154,1.0320087 3.3975572,1.0073607 3.1172226,0.94868352 2.38627,0.97224777 1.8806809,1.0562614 c -0.1685203,0.028003 -0.250015,0.05528 -0.4579762,0.153292 -0.189692,0.089401 -1.4073191,0.636066 -1.41675723,0.636066 -0.0034066,0 -0.0044078,-0.2006266 -0.0022222,-0.445837 C 0.00765685,0.95783522 0.00793768,0.95304124 0.03575795,0.85029976 0.09359531,0.63673322 0.19820454,0.46205536 0.35937531,0.30992297 0.50963214,0.16809233 0.68075801,0.07633561 0.89529487,0.02256623 0.96242003,0.0057422 1.203815,0.00417811 4.2353409,9.2661417e-4 6.5342794,-0.00153979 7.5299418,8.4273417e-4 7.593801,0.00897294 7.7258746,0.02577499 7.8306218,0.05695055 7.9515386,0.11544211 8.2498521,0.25974477 8.459169,0.51403452 8.557545,0.85165286 L 8.58113,0.93259236 8.5846,4.4565728 C 8.58719,7.0875018 8.5849353,8.0008499 8.5757,8.0606439 8.5411434,8.2845263 8.4390815,8.4910354 8.2789751,8.6610205 8.1800651,8.7660379 8.0886419,8.832621 7.9515393,8.8995093 7.8189798,8.9641852 7.7098477,8.9953326 7.5617657,9.0107782 c -0.062598,0.00647 -0.7787063,0.010623 -1.8699666,0.010745 l -1.7685185,1.856e-4 z"
     id="path1" /></svg>
