<?xml version="1.0" encoding="UTF-8" standalone="no"?>
<svg
   width="9.055mm"
   height="9.0552mm"
   version="1.1"
   viewBox="0 0 9.055 9.0552"
   xml:space="preserve"
   id="svg5"
   sodipodi:docname="shield_tm_tp.svg"
   inkscape:version="1.4 (e7c3feb100, 2024-10-09)"
   xmlns:inkscape="http://www.inkscape.org/namespaces/inkscape"
   xmlns:sodipodi="http://sodipodi.sourceforge.net/DTD/sodipodi-0.dtd"
   xmlns="http://www.w3.org/2000/svg"
   xmlns:svg="http://www.w3.org/2000/svg"><defs
     id="defs5"><clipPath
       id="clip0"><rect
         x="1705"
         y="751"
         width="1585"
         height="1591"
         id="rect1" /></clipPath><clipPath
       id="clip0-3"><rect
         x="1631"
         y="275"
         width="1036"
         height="1040"
         id="rect1-8" /></clipPath></defs><sodipodi:namedview
     id="namedview5"
     pagecolor="#ffffff"
     bordercolor="#000000"
     borderopacity="0.25"
     inkscape:showpageshadow="2"
     inkscape:pageopacity="0.0"
     inkscape:pagecheckerboard="0"
     inkscape:deskcolor="#d1d1d1"
     inkscape:document-units="mm"
     inkscape:zoom="16.14642"
     inkscape:cx="7.0294222"
     inkscape:cy="21.1502"
     inkscape:window-width="2032"
     inkscape:window-height="1171"
     inkscape:window-x="26"
     inkscape:window-y="23"
     inkscape:window-maximized="0"
     inkscape:current-layer="svg5" /><g
     id="g1"
     transform="matrix(0.06661542,0,0,0.06661542,3.8569413,4.5035813)"><g
       transform="matrix(0.26458333,0,0,0.26458333,-1105.1039,-378.8227)"
       id="g7"><path
         d="m 3972.5,1190.5 h 485 v 405.61 l -242.5,79.39 -242.5,-79.39 z"
         stroke="#000000"
         stroke-width="11.4583"
         stroke-miterlimit="8"
         fill="#ffffff"
         fill-rule="evenodd"
         id="path1" /><path
         d="m 4111.55,1235.5 13.18,16.94 6.05,31.7 24.72,3.28 10.98,15.3 10.99,6.01 9.34,-6.01 0.55,27.33 7.14,1.64 v 163.4 l -28.02,32.25 -0.55,20.76 -5.49,9.3 -21.97,-2.19 -6.59,5.46 -23.63,-2.73 -14.83,-2.18 -17.03,7.65 -6.59,-1.1 -16.48,-6.01 -23.07,8.2 c -0.19,-2.55 -0.34,-5.1 -0.55,-7.65 -0.16,-1.83 -0.55,-5.47 -0.55,-5.47 l -1.65,-261.23 21.42,11.48 3.3,10.38 0.55,6.01 9.34,6.01 3.29,-5.46 14.84,6.01 14.83,15.3 13.18,20.77 23.08,9.29 4.94,5.47 17.03,6.01 16.48,-2.19 -29.12,-10.38 -10.98,-13.12 v -17.49 l -14.29,-9.83 v -6.56 l 12.09,1.09 3.85,-8.2 -4.4,-8.74 -9.34,-7.1 -8.79,-12.57 -2.74,-9.3 -15.94,-16.94 6.6,-2.18 13.18,-8.75 z"
         stroke="#000000"
         stroke-width="6.875"
         stroke-miterlimit="8"
         fill="#ffffff"
         fill-rule="evenodd"
         id="path2" /><path
         d="m 4395.62,1318.32 34.9,35.91 -216.35,210.24 -34.9,-35.91 z"
         stroke="#ffffff"
         stroke-width="4.58333"
         stroke-miterlimit="8"
         fill-rule="evenodd"
         id="path3" /><path
         d="m 4352.51,1274.02 34.9,35.91 -216.35,210.24 -34.9,-35.91 z"
         stroke="#ffffff"
         stroke-width="4.58333"
         stroke-miterlimit="8"
         fill-rule="evenodd"
         id="path4" /><path
         d="M 0,0 216.353,210.241"
         stroke="#ffffff"
         stroke-width="2.29167"
         stroke-miterlimit="8"
         stroke-dasharray="9.16667, 6.875"
         fill="none"
         fill-rule="evenodd"
         transform="matrix(-1,0,0,1,4370.35,1292)"
         id="path5" /><path
         d="M 0,0 216.353,210.241"
         stroke="#ffffff"
         stroke-width="2.29167"
         stroke-miterlimit="8"
         stroke-dasharray="9.16667, 6.875"
         fill="none"
         fill-rule="evenodd"
         transform="matrix(-1,0,0,1,4409.35,1336)"
         id="path6" /><path
         d="m 4193.24,1370.7 h 40.38 v 146.93 h -40.38 z m 40.38,-40.33 h 135.88 v 40.33 h -82.73 v 202.8 h -40.39 v -202.8 h -12.76 z m -69.98,0 h 29.6 v 40.33 h -29.6 z m -53.14,-55.87 h 205.86 v 40.33 h -82.74 v 15.54 h -40.38 v -15.54 h -82.74 z"
         stroke="#000000"
         stroke-width="4.58333"
         stroke-miterlimit="8"
         fill="#006747"
         fill-rule="evenodd"
         id="path7" /></g></g></svg>
