<?xml version="1.0" encoding="UTF-8" standalone="no"?>
<svg
   width="28.5"
   height="25"
   viewBox="0 0 7.5411 6.615"
   version="1.1"
   id="svg3"
   sodipodi:docname="shield_fsa_fs_2.svg"
   inkscape:version="1.3.2 (091e20e, 2023-11-25, custom)"
   xmlns:inkscape="http://www.inkscape.org/namespaces/inkscape"
   xmlns:sodipodi="http://sodipodi.sourceforge.net/DTD/sodipodi-0.dtd"
   xmlns="http://www.w3.org/2000/svg"
   xmlns:svg="http://www.w3.org/2000/svg">
  <defs
     id="defs3" />
  <sodipodi:namedview
     id="namedview3"
     pagecolor="#ffffff"
     bordercolor="#000000"
     borderopacity="0.25"
     inkscape:showpageshadow="2"
     inkscape:pageopacity="0.0"
     inkscape:pagecheckerboard="0"
     inkscape:deskcolor="#d1d1d1"
     inkscape:zoom="16.68772"
     inkscape:cx="7.9399702"
     inkscape:cy="1.0187132"
     inkscape:window-width="1278"
     inkscape:window-height="1378"
     inkscape:window-x="-7"
     inkscape:window-y="30"
     inkscape:window-maximized="0"
     inkscape:current-layer="svg3" />
  <path
     d="M 0.17951059,3.3415 1.9676688,0.21850929 H 5.5862549 L 7.3744129,3.3415 5.5862549,6.4644741 H 1.9676688 Z"
     stroke="#003e86"
     stroke-width="0.257629"
     stroke-miterlimit="8"
     fill="#ffffff"
     fill-rule="evenodd"
     id="path1" />
  <path
     d="m 4.741291,0.83927154 0.05305,0.15453924 H 4.6849685 Z M 4.1708326,0.77350896 h 0.103652 c 0.014139,0 0.024208,7.252e-4 0.030191,0.002049 0.006,0.00145 0.012517,0.003971 0.019599,0.007813 0.010875,0.00602 0.019311,0.0142501 0.025295,0.0246603 0.00599,0.0104069 0.00899,0.0213716 0.00899,0.0328804 0,0.0115124 -0.003,0.022608 -0.00899,0.0332956 -0.00599,0.0106783 -0.014415,0.01904 -0.025295,0.0250683 -0.00709,0.003844 -0.013753,0.00631 -0.019999,0.007397 -0.00626,0.001088 -0.016188,0.001631 -0.029792,0.001631 h -0.103652 z m -0.9020857,0 h 0.097931 c 0.011429,0 0.021772,0.002194 0.031027,0.006581 0.00924,0.004387 0.0174,0.009863 0.024483,0.0164438 0.013602,0.0142502 0.024345,0.0358972 0.032227,0.0649413 0.0079,0.0290477 0.01184,0.0622019 0.01184,0.0994661 0,0.0367203 -0.00422,0.0694647 -0.012653,0.0982369 -0.00844,0.028767 -0.020811,0.051375 -0.037136,0.067813 -0.00762,0.00767 -0.016188,0.013162 -0.025706,0.016444 -0.00951,0.0033 -0.02136,0.00493 -0.035499,0.00493 H 3.2687465 Z M 5.0723065,0.68637486 V 1.2371394 h 0.3395346 v -0.08138 H 5.1588327 V 0.68637486 Z m -0.3750967,0 -0.188529,0.55076454 h 0.092222 l 0.053875,-0.1545393 h 0.1705791 l 0.053861,0.1545393 h 0.092234 L 4.7829117,0.68637486 Z m -0.6129033,0 V 1.2371394 h 0.086526 V 0.99710136 H 4.274484 L 4.362634,1.2371394 H 4.456493 L 4.3601861,0.97983808 c 0.012517,-0.005475 0.024071,-0.0131442 0.034675,-0.0230141 0.010622,-0.009863 0.019599,-0.0209618 0.026943,-0.0332956 0.00735,-0.0123283 0.013053,-0.0254797 0.017138,-0.0394579 0.00409,-0.0139782 0.00612,-0.028357 0.00612,-0.0431564 0,-0.0137062 -0.00203,-0.0275393 -0.00612,-0.0415102 -0.00409,-0.0139782 -0.0098,-0.0271259 -0.017138,-0.0394579 -0.00735,-0.0123284 -0.016051,-0.0232933 -0.026119,-0.0328822 -0.010073,-0.009591 -0.021085,-0.0174046 -0.033052,-0.0234275 -0.013616,-0.006581 -0.02803,-0.0110955 -0.043269,-0.0135612 -0.015227,-0.002466 -0.033452,-0.003699 -0.054673,-0.003699 z m -0.4295582,0 V 1.2371394 H 3.9942829 V 1.1483537 H 3.741262 V 0.99710136 H 3.9004244 V 0.90832107 H 3.741262 V 0.77350896 H 3.9771325 V 0.6863749 Z m -0.4725152,0 V 1.2371394 h 0.1664946 0.031015 c 0.014153,-0.00109 0.028155,-0.00412 0.042033,-0.00905 0.013878,-0.00493 0.025981,-0.012328 0.036324,-0.022197 0.031015,-0.02412 0.054812,-0.057135 0.071412,-0.099055 0.016589,-0.04192 0.024895,-0.090563 0.024895,-0.14591483 0,-0.0548013 -0.00776,-0.10316452 -0.023258,-0.14508813 -0.015514,-0.0419199 -0.037685,-0.0754875 -0.066528,-0.10069702 -0.00762,-0.005475 -0.014689,-0.0101345 -0.021222,-0.0139782 -0.00653,-0.003825 -0.013866,-0.006853 -0.022034,-0.009047 -0.00816,-0.002194 -0.017276,-0.003699 -0.027343,-0.004515 -0.010073,-9.0651e-4 -0.021897,-0.001269 -0.035499,-0.001269 z m -0.4295706,0 V 1.2371394 H 3.092197 V 1.1483537 H 2.8391761 V 0.99710136 H 2.9983385 V 0.90832107 H 2.8391761 V 0.77350896 H 3.0750466 V 0.6863749 Z m -0.4295581,0 V 1.2371394 h 0.086514 V 0.99710136 H 2.5687678 V 0.90832107 H 2.4096182 V 0.77350896 H 2.6626263 V 0.68637486 Z M 2.1181496,0.46208809 H 5.4732474 L 6.0565966,1.5238365 H 1.5348003 Z"
     fill="#960000"
     fill-rule="evenodd"
     id="path2"
     style="stroke-width:0.0124912" />
  <path
     d="m 3.5765038,5.5440313 0.05305,0.1527218 H 3.5201937 Z m 0.717629,-0.151098 V 5.9372128 H 4.6336547 V 5.8494798 H 4.3806466 V 5.7000032 H 4.5397962 V 5.6122692 H 4.3806466 V 5.4790423 H 4.6165169 V 5.392933 Z m -0.4347668,0 v 0.076358 H 3.98424 v 0.4679214 h 0.086526 v -0.467921 h 0.126498 v -0.076358 z m -0.3269433,0 -0.1885291,0.5442795 h 0.092222 l 0.053874,-0.1527219 h 0.1705791 l 0.053874,0.1527219 h 0.092222 L 3.6181243,5.3929333 Z m -0.5751301,0 v 0.076358 h 0.1248615 v 0.4679211 h 0.086527 V 5.4692917 h 0.1264977 v -0.076358 z m 1.921476,-0.00975 c -0.024483,0 -0.047204,0.0027 -0.068151,0.00813 -0.020948,0.00542 -0.038898,0.013942 -0.053863,0.025587 -0.014965,0.011643 -0.026806,0.026811 -0.035499,0.045494 -0.00872,0.018682 -0.013066,0.041296 -0.013066,0.06783 0,0.022748 0.00394,0.041975 0.01183,0.057682 0.0079,0.015706 0.017412,0.028836 0.028567,0.039397 0.011155,0.010567 0.022721,0.018822 0.034688,0.024778 0.011979,0.00595 0.022034,0.010556 0.030204,0.013808 0.01795,0.00704 0.03605,0.013543 0.054274,0.019499 0.018225,0.00595 0.034962,0.012861 0.050202,0.020716 0.015227,0.00785 0.027606,0.017461 0.037124,0.028836 0.00951,0.011375 0.01429,0.025994 0.01429,0.043869 0,0.022744 -0.00776,0.041835 -0.023258,0.057272 -0.015514,0.015433 -0.03605,0.023148 -0.061619,0.023148 -0.02612,0 -0.049252,-0.0069 -0.069375,-0.020715 -0.020136,-0.013808 -0.035912,-0.033711 -0.047342,-0.059705 l -0.082429,0.030056 c 0.018499,0.041701 0.044482,0.075143 0.077932,0.1003246 0.033464,0.025186 0.073872,0.037778 0.1212139,0.037778 0.023396,0 0.045293,-0.00366 0.065691,-0.010974 0.020411,-0.0073 0.038222,-0.017736 0.053462,-0.031275 0.017412,-0.015706 0.030741,-0.03412 0.039996,-0.055239 0.00925,-0.021125 0.013866,-0.044139 0.013866,-0.069051 0,-0.035744 -0.00638,-0.064312 -0.019174,-0.085706 -0.012791,-0.021393 -0.028704,-0.03845 -0.047754,-0.05118 -0.019037,-0.012726 -0.039847,-0.022471 -0.062431,-0.029246 -0.022583,-0.00677 -0.043657,-0.013404 -0.063254,-0.019903 -0.019586,-0.00649 -0.036175,-0.014215 -0.049777,-0.023148 -0.013602,-0.00894 -0.020948,-0.021797 -0.022034,-0.03859 -0.00111,-0.012456 8.158e-4,-0.022879 0.00571,-0.031272 0.0049,-0.00839 0.011429,-0.015028 0.019586,-0.019903 0.00816,-0.00488 0.017549,-0.00826 0.028155,-0.01015 0.010622,-0.00189 0.020811,-0.00257 0.030603,-0.00203 0.01524,5.439e-4 0.028168,0.00325 0.038773,0.00813 0.010622,0.00488 0.018911,0.010293 0.024895,0.01625 0.00707,0.00704 0.012779,0.01489 0.017138,0.023557 l 0.076721,-0.022745 C 5.0210568,5.4603564 5.0013337,5.4332758 4.9754888,5.4132374 4.9496451,5.3932002 4.9174049,5.383181 4.8787705,5.383181 Z m -2.1478182,0 c -0.024484,0 -0.047206,0.0027 -0.068153,0.00813 -0.020949,0.00542 -0.038902,0.013942 -0.053866,0.025587 -0.014965,0.011643 -0.026798,0.026811 -0.035503,0.045494 -0.00871,0.018682 -0.013061,0.041296 -0.013061,0.06783 0,0.022748 0.00394,0.041975 0.011834,0.057682 0.00789,0.015706 0.017412,0.028836 0.028566,0.039397 0.011157,0.010567 0.022716,0.018822 0.034689,0.024778 0.011969,0.00595 0.022035,0.010556 0.030198,0.013808 0.017955,0.00704 0.036046,0.013543 0.054276,0.019499 0.018225,0.00595 0.034957,0.012861 0.050196,0.020716 0.015237,0.00785 0.027616,0.017461 0.037134,0.028836 0.00951,0.011375 0.014277,0.025994 0.014277,0.043869 0,0.022744 -0.00774,0.041835 -0.023258,0.057272 -0.015503,0.015433 -0.036045,0.023148 -0.061617,0.023148 -0.026121,0 -0.049242,-0.0069 -0.069374,-0.020715 -0.020132,-0.013808 -0.035912,-0.033711 -0.047341,-0.059705 l -0.082432,0.030056 c 0.018499,0.041701 0.04448,0.075143 0.077944,0.1003246 0.033463,0.025186 0.073861,0.037778 0.1212016,0.037778 0.023398,0 0.045298,-0.00366 0.065701,-0.010974 0.020411,-0.0073 0.038222,-0.017736 0.053463,-0.031275 0.017412,-0.015706 0.030741,-0.03412 0.039984,-0.055239 0.00926,-0.021125 0.013878,-0.044139 0.013878,-0.069051 0,-0.035744 -0.00639,-0.064312 -0.019174,-0.085706 C 2.877722,5.6733299 2.861809,5.6562729 2.842759,5.6435429 2.823723,5.6308169 2.802912,5.6210719 2.780327,5.6142969 2.757746,5.6075269 2.736662,5.6008929 2.71707,5.5943939 2.697484,5.5879039 2.680888,5.5801789 2.667286,5.5712459 2.653685,5.5623059 2.646337,5.5494489 2.645245,5.5326559 c -0.00109,-0.012456 8.158e-4,-0.022879 0.00571,-0.031272 0.0049,-0.00839 0.011427,-0.015028 0.019591,-0.019903 0.00816,-0.00488 0.017548,-0.00826 0.028155,-0.01015 0.010611,-0.00189 0.020813,-0.00257 0.030608,-0.00203 0.015235,5.439e-4 0.028158,0.00325 0.038766,0.00813 0.010611,0.00488 0.018904,0.010293 0.0249,0.01625 0.00707,0.00704 0.012778,0.01489 0.017138,0.023557 L 2.886834,5.4944929 C 2.8732395,5.4603564 2.8535164,5.4332758 2.8276594,5.4132374 2.8018156,5.3932002 2.7695821,5.383181 2.7309499,5.383181 Z M 1.5348003,5.1712533 H 6.0565966 L 5.4732474,6.2205085 H 2.1181509 Z"
     fill="#960000"
     fill-rule="evenodd"
     id="path3"
     style="stroke-width:0.0124912" />
</svg>
