<?xml version="1.0" encoding="UTF-8" standalone="no"?>
<svg
   width="9.055mm"
   height="9.0552mm"
   version="1.1"
   viewBox="0 0 9.055 9.0552"
   xml:space="preserve"
   id="svg5"
   sodipodi:docname="shield_fsa_hy_exp.svg"
   inkscape:version="1.3.2 (091e20e, 2023-11-25, custom)"
   xmlns:inkscape="http://www.inkscape.org/namespaces/inkscape"
   xmlns:sodipodi="http://sodipodi.sourceforge.net/DTD/sodipodi-0.dtd"
   xmlns="http://www.w3.org/2000/svg"
   xmlns:svg="http://www.w3.org/2000/svg"><defs
     id="defs5"><clipPath
       id="clip0"><rect
         x="1705"
         y="751"
         width="1585"
         height="1591"
         id="rect1" /></clipPath><clipPath
       id="clip0-3"><rect
         x="1631"
         y="275"
         width="1036"
         height="1040"
         id="rect1-8" /></clipPath><clipPath
       id="clip0-38"><rect
         x="-1567"
         y="632"
         width="1709"
         height="1710"
         id="rect1-0" /></clipPath><clipPath
       id="clip0-8"><rect
         x="2415"
         y="169"
         width="1036"
         height="1036"
         id="rect1-02" /></clipPath><clipPath
       id="clip1"><rect
         x="-0.45454499"
         y="-2770.8201"
         width="490451"
         height="346364"
         id="rect2" /></clipPath><clipPath
       id="clip3"><rect
         x="1088360"
         y="1891850"
         width="487602"
         height="340822"
         id="rect3" /></clipPath><clipPath
       id="clip0-39"><rect
         x="2869"
         y="527"
         width="1036"
         height="1040"
         id="rect1-05" /></clipPath><clipPath
       id="clip0-37"><rect
         x="1196"
         y="1301"
         width="1040"
         height="1041"
         id="rect1-9" /></clipPath><clipPath
       id="clip0-4"><rect
         x="3212"
         y="696"
         width="1068"
         height="1068"
         id="rect1-91" /></clipPath></defs><sodipodi:namedview
     id="namedview5"
     pagecolor="#ffffff"
     bordercolor="#000000"
     borderopacity="0.25"
     inkscape:showpageshadow="2"
     inkscape:pageopacity="0.0"
     inkscape:pagecheckerboard="0"
     inkscape:deskcolor="#d1d1d1"
     inkscape:document-units="mm"
     inkscape:zoom="13.978353"
     inkscape:cx="9.0497071"
     inkscape:cy="29.831841"
     inkscape:window-width="1278"
     inkscape:window-height="1378"
     inkscape:window-x="-7"
     inkscape:window-y="30"
     inkscape:window-maximized="0"
     inkscape:current-layer="svg5" /><g
     id="Layer_2"
     data-name="Layer 2"
     transform="matrix(0.01500685,0,0,0.01500685,0.141646,0.14516414)"><g
       id="Layer_1-2"
       data-name="Layer 1"><rect
         class="cls-1"
         width="586.53998"
         height="586.53998"
         rx="33.139999"
         id="rect1-1"
         style="fill:#00894b"
         x="0"
         y="0" /><path
         class="cls-2"
         d="M 61.73,62.72 C 85.4,63 107.48,70.55 130,78.19 c 0.37,-5 0.7,-9.58 1.05,-14.15 0.76,-10.1 6,-14 14.78,-9.48 14.73,7.53 28.91,16.11 43.32,24.26 1.7,1 3.37,2 4.38,2.55 6.8,-10.68 13,-21.33 20.14,-31.38 6,-8.55 12.56,-7.9 17.65,1.24 9,16.2 23.1,27.77 36.42,40.9 6,-9.82 11.67,-19.09 17.37,-28.34 5.7,-9.25 9.53,-9.94 17.71,-3.42 26.9,21.42 47.7,47.87 64,78 1.42,2.61 2.8,5.23 3.62,6.77 11.95,-12.27 23.68,-24.47 35.63,-36.45 a 53.84,53.84 0 0 1 9.9,-7.5 c 6.13,-3.8 12.24,-1.89 13.9,5.06 6.88,28.73 22.46,53.34 36.53,78.69 28.64,51.6 32.06,105 10.24,159.73 -9.16,23 -14.66,46.07 -12.06,70.93 A 132,132 0 0 0 500,493.49 c 10.12,10.91 20.86,21.23 31.26,31.88 1.66,1.7 4,3.6 4.26,5.61 0.36,3.29 0.31,7.72 -1.6,9.85 -1.65,1.83 -6.25,1.86 -9.3,1.31 -2.26,-0.41 -4.24,-2.9 -6.13,-4.68 C 505.14,524.85 492.71,511.08 478.36,499.74 438.8,468.46 394.51,462 347.54,479.85 c -23.51,8.93 -47,16.36 -72.29,17.12 -37.77,1.15 -72.48,-8.7 -104.78,-28.26 -22,-13.35 -44.58,-25.8 -70,-32 -8.57,-2.09 -10,-8.58 -4.45,-16.21 a 160.45,160.45 0 0 1 42.18,-40.79 12,12 0 0 0 1.67,-1.82 C 132.93,373.95 126.1,370.3 119.49,366.28 94,350.83 71.54,331.94 53,308.49 c -5.35,-6.77 -4.54,-11.58 2.87,-16.16 9.29,-5.73 18.65,-11.33 28,-17 0.33,-0.2 0.49,-0.7 1.06,-1.55 C 72.79,261.11 61.42,247.47 45.81,238.46 35.33,232.38 34.39,226.66 44,219.8 c 9.61,-6.86 20.16,-12.8 31,-19.58 -3.73,-5.95 -8.21,-12.56 -12.13,-19.5 -5.24,-9.29 -10.45,-18.65 -14.91,-28.33 -4.15,-9 -0.58,-14 9.53,-14.81 4.57,-0.35 9.14,-0.68 14.15,-1.05 C 64,114 56.47,92 56.16,68.29 Z"
         id="path1"
         style="fill:#ffffff" /><path
         class="cls-2"
         d="M 487.61,164.22 V 44.51 h 52.07 v 15.92 h -33.76 v 33 h 30.17 v 16 H 505.92 V 149 h 34.95 v 15.21 z"
         id="path2"
         style="fill:#ffffff" /></g></g></svg>
