<?xml version="1.0" encoding="UTF-8" standalone="no"?>
<svg
   width="25.82445"
   height="29.150724"
   version="1.1"
   viewBox="0 0 6.8327188 7.7127963"
   xml:space="preserve"
   id="svg5"
   sodipodi:docname="shield_deo_tdh_2.svg"
   inkscape:version="1.3 (0e150ed, 2023-07-21)"
   xmlns:inkscape="http://www.inkscape.org/namespaces/inkscape"
   xmlns:sodipodi="http://sodipodi.sourceforge.net/DTD/sodipodi-0.dtd"
   xmlns="http://www.w3.org/2000/svg"
   xmlns:svg="http://www.w3.org/2000/svg"><defs
     id="defs5"><clipPath
       id="clip0"><rect
         x="1705"
         y="751"
         width="1585"
         height="1591"
         id="rect1" /></clipPath><clipPath
       id="clip0-3"><rect
         x="1631"
         y="275"
         width="1036"
         height="1040"
         id="rect1-8" /></clipPath><clipPath
       id="clip0-2"><rect
         x="151"
         y="696"
         width="944"
         height="1128"
         id="rect1-6" /></clipPath></defs><sodipodi:namedview
     id="namedview5"
     pagecolor="#ffffff"
     bordercolor="#000000"
     borderopacity="0.25"
     inkscape:showpageshadow="2"
     inkscape:pageopacity="0.0"
     inkscape:pagecheckerboard="0"
     inkscape:deskcolor="#d1d1d1"
     inkscape:document-units="mm"
     inkscape:zoom="14.417681"
     inkscape:cx="13.767817"
     inkscape:cy="21.18926"
     inkscape:window-width="1088"
     inkscape:window-height="1378"
     inkscape:window-x="1243"
     inkscape:window-y="34"
     inkscape:window-maximized="0"
     inkscape:current-layer="svg5" /><g
     id="g1"
     transform="matrix(0.13626742,0,0,0.13626742,3.0285428,3.4972465)"><g
       transform="matrix(4.8265845,0,0,4.8265845,-778.8204,-637.66039)"
       id="g1592"
       style="stroke:none"><path
         style="color:#000000;font-style:normal;font-variant:normal;font-weight:normal;font-stretch:normal;font-size:medium;line-height:normal;font-family:sans-serif;font-variant-ligatures:normal;font-variant-position:normal;font-variant-caps:normal;font-variant-numeric:normal;font-variant-alternates:normal;font-variant-east-asian:normal;font-feature-settings:normal;font-variation-settings:normal;text-indent:0;text-align:start;text-decoration:none;text-decoration-line:none;text-decoration-style:solid;text-decoration-color:#000000;letter-spacing:normal;word-spacing:normal;text-transform:none;writing-mode:lr-tb;direction:ltr;text-orientation:mixed;dominant-baseline:auto;baseline-shift:baseline;text-anchor:start;white-space:normal;shape-padding:0;shape-margin:0;inline-size:0;clip-rule:nonzero;display:inline;overflow:visible;visibility:visible;isolation:auto;mix-blend-mode:normal;color-interpolation:sRGB;color-interpolation-filters:linearRGB;solid-color:#000000;solid-opacity:1;vector-effect:none;fill:#194333;fill-opacity:1;fill-rule:nonzero;stroke:none;stroke-width:0.750001;stroke-linecap:butt;stroke-linejoin:miter;stroke-miterlimit:4;stroke-dasharray:none;stroke-dashoffset:0;stroke-opacity:1;color-rendering:auto;image-rendering:auto;shape-rendering:auto;text-rendering:auto;enable-background:accumulate;stop-color:#000000;stop-opacity:1"
         d="m 157.55301,127.17198 c -0.28851,0.005 -0.41654,0.15692 -0.42168,0.42168 v 7.7804 c 0.0169,0.38748 0.19619,0.63888 0.47078,0.81546 1.39837,0.61966 3.03946,1.34557 4.34857,1.92546 1.31792,-0.55959 2.94966,-1.30622 4.34805,-1.92546 0.27459,-0.17658 0.45439,-0.42798 0.47129,-0.81546 v -7.7804 c -0.005,-0.26476 -0.13368,-0.41668 -0.4222,-0.42168 h -4.24263 -0.30902 z"
         id="path1594" /><path
         style="color:#000000;font-style:normal;font-variant:normal;font-weight:normal;font-stretch:normal;font-size:medium;line-height:normal;font-family:sans-serif;font-variant-ligatures:normal;font-variant-position:normal;font-variant-caps:normal;font-variant-numeric:normal;font-variant-alternates:normal;font-variant-east-asian:normal;font-feature-settings:normal;font-variation-settings:normal;text-indent:0;text-align:start;text-decoration:none;text-decoration-line:none;text-decoration-style:solid;text-decoration-color:#000000;letter-spacing:normal;word-spacing:normal;text-transform:none;writing-mode:lr-tb;direction:ltr;text-orientation:mixed;dominant-baseline:auto;baseline-shift:baseline;text-anchor:start;white-space:normal;shape-padding:0;shape-margin:0;inline-size:0;clip-rule:nonzero;display:inline;overflow:visible;visibility:visible;isolation:auto;mix-blend-mode:normal;color-interpolation:sRGB;color-interpolation-filters:linearRGB;solid-color:#000000;solid-opacity:1;vector-effect:none;fill:#194333;fill-opacity:1;fill-rule:nonzero;stroke:none;stroke-width:0.750001;stroke-linecap:butt;stroke-linejoin:miter;stroke-miterlimit:4;stroke-dasharray:none;stroke-dashoffset:0;stroke-opacity:1;color-rendering:auto;image-rendering:auto;shape-rendering:auto;text-rendering:auto;enable-background:accumulate;stop-color:#000000;stop-opacity:1"
         d="m 157.54688,126.79688 c -0.20909,0.004 -0.42965,0.0695 -0.58204,0.22851 -0.15239,0.15901 -0.20526,0.36915 -0.20898,0.56055 v 0.004 7.79297 0.008 c 0.0216,0.49578 0.29425,0.89124 0.64258,1.11524 l 0.0254,0.0156 0.0254,0.0117 c 1.39855,0.61974 3.04065,1.34401 4.34961,1.92383 l 0.14844,0.0664 0.15039,-0.0625 c 1.32587,-0.56297 2.95841,-1.30995 4.35351,-1.92774 l 0.0254,-0.0117 0.0254,-0.0156 c 0.34815,-0.22388 0.62094,-0.61913 0.64258,-1.11524 v -0.008 -7.79297 -0.004 c -0.004,-0.19175 -0.0564,-0.40169 -0.20898,-0.56055 -0.15257,-0.15886 -0.37295,-0.22489 -0.58203,-0.22851 h -0.002 -4.24609 -0.30859 -4.24805 z"
         id="path1596"
         sodipodi:nodetypes="sscccccccccccccccccssccccs" /></g><g
       aria-label="T. D. H."
       transform="matrix(4.7407317,0,0,4.913992,-778.8204,-637.66039)"
       id="text1465-2"
       style="font-style:normal;font-variant:normal;font-weight:bold;font-stretch:normal;font-size:1.63943px;line-height:0.75;font-family:'Roadgeek 2005 Series D';-inkscape-font-specification:'Roadgeek 2005 Series D Bold';letter-spacing:0px;word-spacing:0px;display:inline;fill:#000000;fill-opacity:1;stroke:none;stroke-width:0.0409858"><path
         d="m 162.82352,125.68661 v 0.88201 h -0.21149 v -0.88201 h -0.30493 v -0.21969 h 0.81644 v 0.21969 z"
         style="font-style:normal;font-variant:normal;font-weight:bold;font-stretch:normal;font-size:1.63943px;font-family:'Roadgeek 2005 Series EM';-inkscape-font-specification:'Roadgeek 2005 Series EM Bold';text-align:center;text-anchor:middle;fill:#ffffff;fill-opacity:1;stroke-width:0.0409858"
         id="path1575" /><path
         d="m 163.43295,126.47681 q 0,0.0459 -0.0311,0.0787 -0.0295,0.0328 -0.0771,0.0328 -0.0475,0 -0.0803,-0.0328 -0.0311,-0.0328 -0.0311,-0.0787 0,-0.0475 0.0311,-0.0803 0.0328,-0.0328 0.0803,-0.0328 0.0475,0 0.0771,0.0328 0.0311,0.0328 0.0311,0.0803 z"
         style="font-style:normal;font-variant:normal;font-weight:bold;font-stretch:normal;font-size:1.63943px;font-family:'Roadgeek 2005 Series EM';-inkscape-font-specification:'Roadgeek 2005 Series EM Bold';text-align:center;text-anchor:middle;fill:#ffffff;fill-opacity:1;stroke-width:0.0409858"
         id="path1577" /><path
         d="m 165.10184,126.01777 q 0,0.12624 -0.0394,0.22788 -0.0393,0.10165 -0.11148,0.17378 -0.0705,0.0705 -0.1705,0.10984 -0.1,0.0393 -0.22296,0.0393 h -0.34264 v -1.1017 h 0.34264 q 0.1246,0 0.2246,0.0393 0.10001,0.0393 0.1705,0.11148 0.0721,0.0721 0.10984,0.17378 0.0394,0.10164 0.0394,0.22624 z m -0.2164,0 q 0,-0.15739 -0.0836,-0.24427 -0.0836,-0.0869 -0.23279,-0.0869 h -0.13772 v 0.66233 h 0.13772 q 0.14918,0 0.23279,-0.0869 0.0836,-0.0869 0.0836,-0.24428 z"
         style="font-style:normal;font-variant:normal;font-weight:bold;font-stretch:normal;font-size:1.63943px;font-family:'Roadgeek 2005 Series EM';-inkscape-font-specification:'Roadgeek 2005 Series EM Bold';text-align:center;text-anchor:middle;fill:#ffffff;fill-opacity:1;stroke-width:0.0409858"
         id="path1579" /><path
         d="m 165.47584,126.47681 q 0,0.0459 -0.0311,0.0787 -0.0295,0.0328 -0.0771,0.0328 -0.0475,0 -0.0803,-0.0328 -0.0311,-0.0328 -0.0311,-0.0787 0,-0.0475 0.0311,-0.0803 0.0328,-0.0328 0.0803,-0.0328 0.0476,0 0.0771,0.0328 0.0311,0.0328 0.0311,0.0803 z"
         style="font-style:normal;font-variant:normal;font-weight:bold;font-stretch:normal;font-size:1.63943px;font-family:'Roadgeek 2005 Series EM';-inkscape-font-specification:'Roadgeek 2005 Series EM Bold';text-align:center;text-anchor:middle;fill:#ffffff;fill-opacity:1;stroke-width:0.0409858"
         id="path1581" /><path
         d="m 166.92832,126.56862 v -0.48199 h -0.45412 v 0.48199 h -0.21641 v -1.09842 h 0.21641 v 0.39674 h 0.45412 v -0.39674 h 0.2164 v 1.09842 z"
         style="font-style:normal;font-variant:normal;font-weight:bold;font-stretch:normal;font-size:1.63943px;font-family:'Roadgeek 2005 Series EM';-inkscape-font-specification:'Roadgeek 2005 Series EM Bold';text-align:center;text-anchor:middle;fill:#ffffff;fill-opacity:1;stroke-width:0.0409858"
         id="path1583" /><path
         d="m 167.56035,126.47681 q 0,0.0459 -0.0311,0.0787 -0.0295,0.0328 -0.0771,0.0328 -0.0475,0 -0.0803,-0.0328 -0.0311,-0.0328 -0.0311,-0.0787 0,-0.0475 0.0311,-0.0803 0.0328,-0.0328 0.0803,-0.0328 0.0475,0 0.0771,0.0328 0.0311,0.0328 0.0311,0.0803 z"
         style="font-style:normal;font-variant:normal;font-weight:bold;font-stretch:normal;font-size:1.63943px;font-family:'Roadgeek 2005 Series EM';-inkscape-font-specification:'Roadgeek 2005 Series EM Bold';text-align:center;text-anchor:middle;fill:#ffffff;fill-opacity:1;stroke-width:0.0409858"
         id="path1585" /></g><path
       id="path1439-2"
       style="display:inline;fill:#ffffff;fill-opacity:1;stroke:none;stroke-width:0.506791;stroke-miterlimit:4;stroke-dasharray:2.02717, 1.01358;stroke-dashoffset:0;paint-order:stroke fill markers;stop-color:#000000"
       d="m -18.389161,-24.49458 c -0.806619,0.0145 -1.503771,0.24857 -1.977935,0.74324 -0.47397,0.49473 -0.664089,1.18363 -0.678424,1.92306 v 37.5752 0.01 c 0.08977,2.05458 1.113203,3.51665 2.564075,4.44968 l 0.03861,0.029 0.04827,0.0193 c 6.749641,2.99089 14.665525,6.49706 20.983765,9.29585 l 0.25436,0.11246 0.25436,-0.11246 c 6.37462,-2.70665 14.24992,-6.3096 20.99376,-9.2959 l 0.0483,-0.0193 0.0483,-0.029 c 1.450526,-0.93278 2.474336,-2.39447 2.563966,-4.44963 v -0.01 -37.5752 c -0.0145,-0.74006 -0.21333,-1.42857 -0.68836,-1.92306 -0.47494,-0.49448 -1.173726,-0.72925 -1.980396,-0.74324 H 3.59855 2.1095 -18.375392 Z m 0.0097,1.28199 h 0.0097 20.474951 1.48905 20.47495 c 0.57692,0.0145 0.88664,0.15059 1.07497,0.34654 0.18824,0.19596 0.31952,0.51756 0.33159,1.04757 v 37.52785 c -0.0734,1.68177 -0.79479,2.64111 -1.99039,3.41206 -0.003,0.001 0.003,0.01 0,0.01 -1.31529,0.58267 -2.75685,1.23194 -4.13537,1.8482 L 11.2937,21.4536 13.40881,17.14857 6.4674,20.421 3.10023,16.25314 l -3.36717,4.20772 -6.92141,-3.28236 1.9704,4.30748 -8.572589,-0.5886 c -1.355884,-0.60038 -2.721083,-1.20332 -4.01316,-1.77589 -1.192697,-0.77033 -1.897137,-1.73173 -1.970453,-3.41206 v -37.51786 -0.01 c 0.01448,-0.53058 0.141419,-0.85174 0.329173,-1.04756 0.187754,-0.19596 0.488305,-0.33448 1.065034,-0.34655 z" /></g></svg>
