<?xml version="1.0" encoding="UTF-8" standalone="no"?>
<svg
   height="20"
   width="22.525"
   version="1.1"
   id="svg1"
   sodipodi:docname="shield_fsa_hy_cty.svg"
   inkscape:version="1.3.2 (091e20e, 2023-11-25, custom)"
   xmlns:inkscape="http://www.inkscape.org/namespaces/inkscape"
   xmlns:sodipodi="http://sodipodi.sourceforge.net/DTD/sodipodi-0.dtd"
   xmlns="http://www.w3.org/2000/svg"
   xmlns:svg="http://www.w3.org/2000/svg">
  <defs
     id="defs1" />
  <sodipodi:namedview
     id="namedview1"
     pagecolor="#ffffff"
     bordercolor="#000000"
     borderopacity="0.25"
     inkscape:showpageshadow="2"
     inkscape:pageopacity="0.0"
     inkscape:pagecheckerboard="0"
     inkscape:deskcolor="#d1d1d1"
     inkscape:zoom="14.8875"
     inkscape:cx="11.586902"
     inkscape:cy="15.919396"
     inkscape:window-width="1278"
     inkscape:window-height="1378"
     inkscape:window-x="0"
     inkscape:window-y="30"
     inkscape:window-maximized="0"
     inkscape:current-layer="svg1" />
  <g
     id="Layer_1-2"
     data-name="Layer 1"
     transform="matrix(0.03404293,0,0,0.03404293,0.05206682,0.08790531)">
    <text
       id="text1" />
    <rect
       class="cls-1"
       x="12.5"
       y="12.5"
       width="636.66998"
       height="558.15002"
       rx="33.139999"
       id="rect1"
       style="fill:#ffffff;stroke:#231f20;stroke-width:25px;stroke-linejoin:round" />
    <path
       d="m 481.62,57.54 c -0.1,7.38 -2.44,14.27 -4.82,21.28 l 4.41,0.33 c 3.15,0.24 4.36,1.86 3,4.61 -2.35,4.59 -5,9 -7.57,13.51 -0.3,0.53 -0.61,1 -0.8,1.37 3.33,2.12 6.66,4.06 9.79,6.28 2.67,1.88 2.46,3.92 -0.39,5.5 -5.05,2.82 -8.66,7.21 -12.75,11.37 3.06,1.87 5.95,3.63 8.83,5.41 2.88,1.78 3.11,3 1.07,5.53 a 78.1,78.1 0 0 1 -24.32,20 l -2.11,1.13 c 3.82,3.73 7.63,7.38 11.37,11.11 a 17.68,17.68 0 0 1 2.34,3.09 c 1.18,1.91 0.59,3.82 -1.58,4.34 -9,2.14 -16.64,7 -24.55,11.39 -16.09,8.93 -32.76,10 -49.82,3.19 -7.15,-2.85 -14.37,-4.57 -22.12,-3.76 a 41.14,41.14 0 0 0 -24.3,11 c -3.4,3.15 -6.62,6.51 -9.94,9.75 -0.54,0.52 -1.13,1.26 -1.75,1.33 a 4.46,4.46 0 0 1 -3.08,-0.5 c -0.57,-0.52 -0.58,-1.95 -0.4,-2.9 0.12,-0.71 0.9,-1.32 1.45,-1.91 3.94,-4.17 8.23,-8.05 11.77,-12.52 9.76,-12.34 11.77,-26.16 6.2,-40.81 -2.78,-7.33 -5.1,-14.66 -5.34,-22.54 A 58.52,58.52 0 0 1 355,91.44 c 4.16,-6.87 8.05,-13.9 10,-21.83 0.65,-2.68 2.68,-3.11 5.06,-1.39 a 49.92,49.92 0 0 1 12.72,13.16 5.74,5.74 0 0 0 0.57,0.52 c 1.23,-2.17 2.37,-4.3 3.62,-6.36 a 76.86,76.86 0 0 1 18,-20.71 c 2.11,-1.67 3.61,-1.42 5,0.89 1.79,2.9 3.54,5.82 5.31,8.72 0.06,0.11 0.22,0.16 0.49,0.33 3.95,-3.78 8.2,-7.33 11,-12.2 1.89,-3.27 3.67,-3.56 5.82,-0.57 2.15,2.99 4,6.29 6.1,9.67 1.86,-1.16 3.92,-2.56 6.09,-3.78 2.89,-1.64 5.81,-3.26 8.83,-4.65 2.81,-1.3 4.38,-0.18 4.62,3 0.11,1.43 0.21,2.85 0.33,4.41 7,-2.38 13.9,-4.72 21.28,-4.82 z M 459.8,164.83 c -0.26,-0.29 -0.5,-0.59 -0.78,-0.86 a 37.34,37.34 0 0 0 -10.85,-7.52 3.74,3.74 0 0 1 -2,-2.68 3.62,3.62 0 0 1 2.06,-2.58 71.61,71.61 0 0 0 21.67,-13.25 c 1.65,-1.42 3.11,-3.08 4.63,-4.6 -7.26,0.47 -14.4,1.11 -21.55,1.37 a 372.9,372.9 0 0 1 -44,-1.4 3.84,3.84 0 0 0 -3.51,1 c -8.39,8.5 -16.86,16.92 -25.3,25.37 -0.35,0.35 -0.63,0.77 -1.31,1.61 13.72,-4.09 27.2,-4.88 40.83,-3.93 13.63,0.95 26.9,3.79 40.11,7.47 z m -0.27,4.48 v -0.85 c -9.17,-2 -18.28,-4.39 -27.52,-6 a 120.36,120.36 0 0 0 -44.37,0.31 c -8.77,1.76 -17,4.45 -22.66,12.08 a 47.84,47.84 0 0 1 -4.8,4.86 1.83,1.83 0 0 0 1.36,0 47.71,47.71 0 0 1 18.59,-2 c 6.57,0.53 12.48,3.2 18.59,5.31 11.07,3.82 22.41,4.26 33.25,-0.18 9.48,-3.79 18.4,-8.94 27.56,-13.53 z m -89.24,-4.87 c 0.34,-0.26 0.51,-0.37 0.65,-0.5 q 13.4,-13.4 26.82,-26.77 a 2.68,2.68 0 0 0 0.67,-2.93 91.18,91.18 0 0 1 -2.17,-22.76 c 0.22,-15.37 2.86,-30.4 6.48,-45.29 0.18,-0.73 0.3,-1.47 0.45,-2.21 l -0.57,-0.28 c -3,3.84 -6.41,7.47 -9,11.57 -2.77,4.33 -4.76,9.15 -7.24,13.67 a 5.09,5.09 0 0 1 -2.7,2.32 c -1.43,0.39 -2.26,-0.9 -2.82,-2.15 -0.27,-0.62 -0.56,-1.24 -0.87,-1.85 A 30.22,30.22 0 0 0 371.85,77.2 c 8.67,29.22 7.37,58.18 -1.56,87.24 z m -2.06,-86 c -3.47,6.38 -6.74,12.49 -10.11,18.54 a 51.49,51.49 0 0 0 -6.59,26.25 c 0.11,7.49 2.22,14.48 5,21.37 a 45.74,45.74 0 0 1 1.22,31.06 12.84,12.84 0 0 0 -0.28,1.4 c 1.92,-1.54 3.9,-3 4.92,-5 a 76.45,76.45 0 0 0 5.78,-13.48 c 6.83,-24.2 8.19,-48.6 1.88,-73.17 z m 33.32,54.09 0.64,0.19 c 5.1,-5.1 10.22,-10.19 15.27,-15.34 a 2.32,2.32 0 0 0 0.46,-1.82 c -1.76,-9.79 -0.1,-19.14 3.65,-28.19 A 88.52,88.52 0 0 0 428,65 c 0.22,-1.62 0.36,-3.25 0.52,-4.82 -3.94,3.56 -7.7,7 -11.52,10.38 -2,1.74 -3.58,1.39 -5,-0.92 -1.42,-2.31 -2.86,-4.86 -4.57,-7.76 -5.71,23.66 -9.98,46.8 -5.88,70.62 z m 75.68,-23.26 -0.22,-0.53 c -4.54,1.18 -9.09,2.32 -13.62,3.56 a 44.65,44.65 0 0 1 -30.95,-2.3 2.21,2.21 0 0 0 -3,0.48 c -5.93,6 -11.94,12 -17.92,18 -0.35,0.35 -0.62,0.78 -1.14,1.42 21.42,1.48 42.47,2.44 63.55,-0.57 -2.11,-1.47 -4.28,-2.72 -6.43,-4 -2.15,-1.28 -2.33,-2.87 -0.79,-4.73 1.54,-1.86 2.94,-3.59 4.52,-5.28 1.94,-2.12 4,-4.08 6,-6.08 z m -55.93,4 a 5.48,5.48 0 0 0 0.83,-0.49 q 10.72,-10.7 21.39,-21.44 a 2.41,2.41 0 0 0 0.45,-2 26.58,26.58 0 0 1 0.21,-14.16 c 1.35,-4.58 3.17,-9 4.74,-13.41 0.12,0 -0.11,0 -0.27,0.07 -3,1.94 -6.07,3.88 -9.08,5.86 -2.55,1.68 -4,1.25 -5.24,-1.57 -0.63,-1.49 -1.3,-3 -1.95,-4.43 a 97.28,97.28 0 0 1 -7.38,26.84 49.3,49.3 0 0 0 -2.14,6.16 43.54,43.54 0 0 0 -1.56,18.52 z m 12.25,-6.82 a 41.25,41.25 0 0 0 16.62,4 c 9,0.38 17.08,-3.65 26.32,-5 -1.95,-0.87 -3.34,-1.52 -4.77,-2.11 -3.38,-1.41 -3.75,-2.68 -1.77,-5.7 2.38,-3.62 4.67,-7.28 7.15,-11.14 a 7.65,7.65 0 0 0 -1,0.12 62,62 0 0 1 -24.38,3 3.7,3.7 0 0 0 -2.42,1.09 c -4.4,4.29 -8.71,8.66 -13.05,13 z m 19.68,-43.64 c -5.23,7.94 -7.94,20.16 -5.66,24.32 l 24.92,-24.92 c -1.05,0.22 -1.65,0.28 -2.21,0.47 q -6.28,2.08 -12.56,4.21 c -2.68,0.9 -4,0 -4.35,-2.76 -0.04,-0.38 -0.07,-0.72 -0.14,-1.37 z m 0.84,23.3 a 57.9,57.9 0 0 0 17.59,-2 c -1.85,-1.69 -1.56,-3.41 -0.76,-5.2 a 31.74,31.74 0 0 0 1.26,-3.23 c 1.09,-3.37 2.12,-6.77 3.17,-10.15 l -0.47,-0.2 z"
       id="path1" />
    <path
       class="cls-2"
       d="m 459.8,164.83 c -13.21,-3.68 -26.44,-6.49 -40,-7.44 -13.56,-0.95 -27.11,-0.16 -40.83,3.93 0.68,-0.84 1,-1.26 1.31,-1.61 8.44,-8.45 16.91,-16.87 25.3,-25.37 a 3.84,3.84 0 0 1 3.51,-1 372.9,372.9 0 0 0 44,1.4 c 7.15,-0.26 14.29,-0.9 21.55,-1.37 -1.52,1.52 -3,3.18 -4.63,4.6 a 71.61,71.61 0 0 1 -21.67,13.25 3.62,3.62 0 0 0 -2.06,2.58 3.74,3.74 0 0 0 2,2.68 A 37.34,37.34 0 0 1 459,164 c 0.3,0.24 0.54,0.54 0.8,0.83 z"
       id="path2"
       style="fill:#ffffff" />
    <path
       class="cls-2"
       d="m 459.53,169.31 c -9.16,4.59 -18.08,9.74 -27.52,13.61 -10.84,4.44 -22.18,4 -33.25,0.18 -6.11,-2.11 -12,-4.78 -18.59,-5.31 a 47.71,47.71 0 0 0 -18.59,2 1.83,1.83 0 0 1 -1.36,0 47.84,47.84 0 0 0 4.8,-4.86 c 5.68,-7.63 13.89,-10.32 22.66,-12.08 a 120.36,120.36 0 0 1 44.37,-0.31 c 9.24,1.59 18.35,4 27.52,6 z"
       id="path3"
       style="fill:#ffffff" />
    <path
       class="cls-2"
       d="m 370.29,164.44 c 8.93,-29.06 10.23,-58 1.53,-87.24 A 30.22,30.22 0 0 1 380,87.26 c 0.31,0.61 0.6,1.23 0.87,1.85 0.56,1.25 1.39,2.54 2.82,2.15 a 5.09,5.09 0 0 0 2.7,-2.32 c 2.48,-4.52 4.47,-9.34 7.24,-13.67 2.62,-4.1 6,-7.73 9,-11.57 l 0.57,0.28 c -0.15,0.74 -0.27,1.48 -0.45,2.21 -3.62,14.89 -6.26,29.92 -6.48,45.29 a 91.18,91.18 0 0 0 2.17,22.76 2.68,2.68 0 0 1 -0.67,2.93 q -13.45,13.34 -26.82,26.77 c -0.15,0.13 -0.32,0.24 -0.66,0.5 z"
       id="path4"
       style="fill:#ffffff" />
    <path
       class="cls-2"
       d="m 368.23,78.41 1.8,7 c 6.31,24.57 5,49 -1.88,73.17 A 76.45,76.45 0 0 1 362.37,172 c -1,2 -3,3.46 -4.92,5 a 12.84,12.84 0 0 1 0.28,-1.4 45.74,45.74 0 0 0 -1.22,-31.06 c -2.76,-6.89 -4.87,-13.88 -5,-21.37 A 51.49,51.49 0 0 1 358.12,97 c 3.37,-6.1 6.64,-12.21 10.11,-18.59 z"
       id="path5"
       style="fill:#ffffff" />
    <path
       class="cls-2"
       d="m 401.55,132.5 c -4.1,-23.82 0.17,-47 5.9,-70.58 1.71,2.9 3.12,5.34 4.57,7.76 1.45,2.42 3,2.66 5,0.92 3.82,-3.37 7.58,-6.82 11.52,-10.38 -0.16,1.57 -0.3,3.2 -0.52,4.82 a 88.52,88.52 0 0 1 -6.4,22.3 c -3.75,9 -5.41,18.4 -3.65,28.19 a 2.32,2.32 0 0 1 -0.46,1.82 c -5,5.15 -10.17,10.24 -15.27,15.34 z"
       id="path6"
       style="fill:#ffffff" />
    <path
       class="cls-2"
       d="m 477.23,109.24 c -2,2 -4.06,4 -6,6 -1.58,1.69 -3.05,3.49 -4.52,5.28 -1.47,1.79 -1.26,3.5 0.79,4.73 2.05,1.23 4.32,2.53 6.43,4 -21.08,3 -42.13,2.05 -63.55,0.57 0.52,-0.64 0.79,-1.07 1.14,-1.42 6,-6 12,-11.94 17.92,-18 a 2.21,2.21 0 0 1 3,-0.48 44.65,44.65 0 0 0 30.95,2.3 c 4.53,-1.24 9.08,-2.38 13.62,-3.56 z"
       id="path7"
       style="fill:#ffffff" />
    <path
       class="cls-2"
       d="m 421.3,113.22 a 43.54,43.54 0 0 1 1.51,-18.52 49.3,49.3 0 0 1 2.19,-6.16 97.28,97.28 0 0 0 7.43,-26.85 c 0.65,1.47 1.32,2.94 1.95,4.43 1.2,2.82 2.69,3.25 5.24,1.57 3,-2 6.05,-3.92 9.08,-5.86 0.16,-0.1 0.39,-0.09 0.27,-0.07 -1.57,4.38 -3.39,8.83 -4.74,13.41 a 26.58,26.58 0 0 0 -0.23,14.16 2.41,2.41 0 0 1 -0.45,2 q -10.63,10.77 -21.39,21.44 a 5.48,5.48 0 0 1 -0.86,0.45 z"
       id="path8"
       style="fill:#ffffff" />
    <path
       class="cls-2"
       d="m 433.55,106.4 2.73,-2.72 c 4.34,-4.34 8.65,-8.71 13.05,-13 a 3.7,3.7 0 0 1 2.42,-1.09 62,62 0 0 0 24.38,-3 7.65,7.65 0 0 1 1,-0.12 c -2.48,3.86 -4.77,7.52 -7.15,11.14 -2,3 -1.61,4.29 1.77,5.7 1.43,0.59 2.82,1.24 4.77,2.11 -9.24,1.36 -17.33,5.39 -26.32,5 a 41.25,41.25 0 0 1 -16.65,-4.02 z"
       id="path9"
       style="fill:#ffffff" />
    <path
       class="cls-2"
       d="m 453.23,62.76 c 0.07,0.65 0.1,1 0.14,1.32 0.32,2.81 1.67,3.66 4.35,2.76 q 6.27,-2.11 12.56,-4.21 c 0.56,-0.19 1.16,-0.25 2.21,-0.47 -8.52,8.53 -16.72,16.73 -24.92,24.92 -2.28,-4.16 0.43,-16.38 5.66,-24.32 z"
       id="path10"
       style="fill:#ffffff" />
    <path
       class="cls-2"
       d="m 454.07,86.06 20.79,-20.79 0.47,0.2 c -1.05,3.38 -2.08,6.78 -3.17,10.15 a 31.74,31.74 0 0 1 -1.26,3.23 c -0.8,1.79 -1.09,3.51 0.76,5.2 a 57.9,57.9 0 0 1 -17.59,2.01 z"
       id="path11"
       style="fill:#ffffff" />
    <path
       d="m 184.16,55.75 c 7.38,0.1 14.27,2.45 21.29,4.83 0.11,-1.56 0.22,-3 0.32,-4.41 0.24,-3.15 1.87,-4.37 4.61,-3 4.6,2.35 9,5 13.52,7.57 0.53,0.29 1,0.61 1.36,0.79 2.12,-3.33 4.07,-6.65 6.28,-9.78 1.89,-2.67 3.92,-2.47 5.51,0.38 2.81,5 7.2,8.66 11.36,12.76 1.88,-3.07 3.64,-6 5.42,-8.84 1.78,-2.84 3,-3.1 5.52,-1.07 a 78.27,78.27 0 0 1 20,24.32 c 0.44,0.82 0.87,1.64 1.12,2.12 3.73,-3.83 7.39,-7.64 11.12,-11.37 a 16.52,16.52 0 0 1 3.09,-2.34 c 1.91,-1.19 3.81,-0.59 4.33,1.57 2.15,9 7,16.64 11.4,24.55 8.93,16.09 10,32.76 3.19,49.82 -2.86,7.16 -4.57,14.37 -3.76,22.13 a 41.16,41.16 0 0 0 11,24.3 c 3.16,3.4 6.51,6.62 9.75,9.94 0.52,0.53 1.26,1.12 1.33,1.75 a 4.32,4.32 0 0 1 -0.5,3.07 c -0.51,0.57 -1.95,0.58 -2.9,0.41 -0.7,-0.13 -1.32,-0.9 -1.91,-1.46 -4.16,-3.93 -8,-8.23 -12.52,-11.76 -12.34,-9.76 -26.15,-11.78 -40.8,-6.21 -7.33,2.79 -14.67,5.1 -22.55,5.34 a 58.4,58.4 0 0 1 -32.68,-8.81 c -6.87,-4.17 -13.9,-8 -21.84,-10 -2.67,-0.65 -3.11,-2.67 -1.39,-5 a 50.11,50.11 0 0 1 13.17,-12.72 3.11,3.11 0 0 0 0.52,-0.57 c -2.16,-1.22 -4.29,-2.36 -6.35,-3.62 a 76.58,76.58 0 0 1 -20.72,-18 c -1.67,-2.11 -1.42,-3.61 0.9,-5 2.89,-1.78 5.81,-3.53 8.72,-5.31 0.1,-0.06 0.15,-0.21 0.33,-0.48 -3.79,-4 -7.34,-8.21 -12.2,-11 -3.27,-1.89 -3.57,-3.67 -0.57,-5.81 3,-2.14 6.29,-4 9.67,-6.11 -1.17,-1.85 -2.56,-3.92 -3.79,-6.08 -1.63,-2.9 -3.26,-5.82 -4.65,-8.83 -1.29,-2.82 -0.18,-4.39 3,-4.63 l 4.41,-0.32 c -2.38,-7 -4.73,-13.91 -4.83,-21.29 z"
       id="path12" />
  </g>
</svg>
