<?xml version="1.0" encoding="UTF-8" standalone="no"?>
<svg
   width="25"
   height="20"
   version="1.0"
   id="svg1"
   sodipodi:docname="shield_fsa_cd_3.svg"
   inkscape:version="1.4 (e7c3feb1, 2024-10-09)"
   xmlns:inkscape="http://www.inkscape.org/namespaces/inkscape"
   xmlns:sodipodi="http://sodipodi.sourceforge.net/DTD/sodipodi-0.dtd"
   xmlns="http://www.w3.org/2000/svg"
   xmlns:svg="http://www.w3.org/2000/svg">
  <defs
     id="defs1" />
  <sodipodi:namedview
     id="namedview1"
     pagecolor="#ffffff"
     bordercolor="#000000"
     borderopacity="0.25"
     inkscape:showpageshadow="2"
     inkscape:pageopacity="0.0"
     inkscape:pagecheckerboard="0"
     inkscape:deskcolor="#d1d1d1"
     inkscape:zoom="10.527052"
     inkscape:cx="10.591759"
     inkscape:cy="17.336287"
     inkscape:window-width="1232"
     inkscape:window-height="964"
     inkscape:window-x="2697"
     inkscape:window-y="123"
     inkscape:window-maximized="0"
     inkscape:current-layer="svg1" />
  <g
     transform="matrix(0.01185582,0,0,0.01185582,-54.91567,21.699027)"
     id="g3"
     style="stroke-width:32.83546309;stroke-dasharray:none">
    <g
       id="g2"
       style="stroke-width:32.83546309;stroke-dasharray:none">
      <path
         d="m 5138.45,-1501.69 -10.84,0.35 c -6.77,0.78 -13.42,2.14 -20.04,4.15 l -6.21,2.72 -15.61,24.98 c -7.56,10.91 -15.2,20.88 -22.9,29.99 l -20.26,21.61 39.43,-36.03 c 14.21,-11.65 29.03,-22.53 44.44,-32.56 l 14.99,-8.59 z M 5121.6,-1789 c 19.97,96.65 44.9,168.55 94.28,235.18 l 13.47,16.77 50.79,-15.02 c 678.67,-224.41 1752.18,489.89 1275.64,1140.358 23.56,75.909 -17.45,174.647 -63.32,202.108 -45.88,27.462 -64.72,56.484 -456.8,35.327 C 4861.41,-191.879 4702.67,-998.825 5004.45,-1375.25 l 34.74,-39.09 -23.31,19.96 c -103.23,78.66 -215.18,43.69 -318.88,98.61 27.93,-145.66 90.58,-288.51 254.29,-282.17 37.78,1.46 80.94,10.87 130.3,30.02 l 0.24,0.34 34.43,-3.12 -80.26,-177.22 c 28.53,-20.36 63.53,-21.32 85.6,-61.08 z"
         stroke="#000000"
         stroke-width="13.75"
         stroke-linecap="butt"
         stroke-linejoin="miter"
         stroke-miterlimit="8"
         stroke-opacity="1"
         fill="#ffffff"
         fill-rule="evenodd"
         fill-opacity="1"
         id="path1"
         style="stroke-width:32.83546309;stroke-dasharray:none" />
    </g>
  </g>
</svg>
