<?xml version="1.0" encoding="UTF-8" standalone="no"?>
<svg
   width="9.055mm"
   height="9.0552mm"
   version="1.1"
   viewBox="0 0 9.055 9.0552"
   xml:space="preserve"
   id="svg5"
   sodipodi:docname="shield_fsa_z.svg"
   inkscape:version="1.3.2 (091e20e, 2023-11-25, custom)"
   xmlns:inkscape="http://www.inkscape.org/namespaces/inkscape"
   xmlns:sodipodi="http://sodipodi.sourceforge.net/DTD/sodipodi-0.dtd"
   xmlns="http://www.w3.org/2000/svg"
   xmlns:svg="http://www.w3.org/2000/svg"><defs
     id="defs5"><clipPath
       id="clip0"><rect
         x="1705"
         y="751"
         width="1585"
         height="1591"
         id="rect1" /></clipPath><clipPath
       id="clip0-3"><rect
         x="1631"
         y="275"
         width="1036"
         height="1040"
         id="rect1-8" /></clipPath><clipPath
       id="clip0-38"><rect
         x="-1567"
         y="632"
         width="1709"
         height="1710"
         id="rect1-0" /></clipPath><clipPath
       id="clip0-8"><rect
         x="2415"
         y="169"
         width="1036"
         height="1036"
         id="rect1-02" /></clipPath><clipPath
       id="clip1"><rect
         x="-0.45454499"
         y="-2770.8201"
         width="490451"
         height="346364"
         id="rect2" /></clipPath><clipPath
       id="clip3"><rect
         x="1088360"
         y="1891850"
         width="487602"
         height="340822"
         id="rect3" /></clipPath><clipPath
       id="clip0-39"><rect
         x="2869"
         y="527"
         width="1036"
         height="1040"
         id="rect1-05" /></clipPath></defs><sodipodi:namedview
     id="namedview5"
     pagecolor="#ffffff"
     bordercolor="#000000"
     borderopacity="0.25"
     inkscape:showpageshadow="2"
     inkscape:pageopacity="0.0"
     inkscape:pagecheckerboard="0"
     inkscape:deskcolor="#d1d1d1"
     inkscape:document-units="mm"
     inkscape:zoom="13.543881"
     inkscape:cx="11.333531"
     inkscape:cy="1.6981839"
     inkscape:window-width="1278"
     inkscape:window-height="1378"
     inkscape:window-x="-7"
     inkscape:window-y="30"
     inkscape:window-maximized="0"
     inkscape:current-layer="layer5" /><g
     clip-path="url(#clip0-39)"
     transform="matrix(0.00878057,0,0,0.00878057,-24.893806,-4.3144328)"
     id="g2"><rect
       x="2946.8462"
       y="601.40314"
       width="789.74524"
       height="788.96021"
       stroke="#000000"
       stroke-width="21.5884"
       stroke-linecap="butt"
       stroke-linejoin="miter"
       stroke-miterlimit="8"
       stroke-opacity="1"
       fill="#ffffff"
       fill-opacity="1"
       id="rect2-2"
       inkscape:label="rect2-2"
       style="stroke:#002a2e;stroke-opacity:1" /><g
       inkscape:groupmode="layer"
       id="layer5"
       inkscape:label="bear trace"
       style="display:inline"
       transform="matrix(9.257484,0,0,9.257484,2921.7177,613.09688)"><path
         id="path21258"
         style="fill:#00292d;stroke:#7ea603;stroke-width:0.116786"
         d="m 34.572923,0.91631215 -2.210518,0.14736795 -2.653092,0.098245 -2.112272,0.3438585 -2.603501,0.7859623 -1.915784,1.2771888 -2.112273,1.6210473 -1.228534,1.0320433 -0.687717,1.0315756 -1.571925,1.522802 -1.964905,2.1613961 -0.73684,1.719293 -0.835085,2.456133 -0.540349,1.375434 -1.178944,2.4566 -0.408419,1.297306 -0.967015,1.158826 -0.294736,1.409118 -0.53567,1.480697 -0.4472503,1.383855 0.1969584,1.572392 -0.393449,2.750869 -0.687717,2.652622 -0.2456133,1.817539 -0.2947359,0.687716 0.1964906,0.442104 -0.9333303,1.228067 -0.687717,1.130288 -1.0806982,1.277189 -0.7859622,0.294736 -0.043976,1.280463 -0.1964906,1.802099 0.1913444,1.682335 3.8806889,0.491226 3.5616255,0.06831 c 2.777231,-0.84936 -0.613536,-1.418778 -1.470873,-2.102924 l 1.299177,-1.060113 4.126302,-3.880689 1.47368,-1.228534 0.589472,-0.835085 0.73684,-0.540349 1.031575,-1.277188 0.540817,-0.785963 0.785963,0.589472 1.080697,1.522802 1.129821,1.424557 1.178944,1.572392 0.93333,1.12982 0.73684,1.47368 0.343858,1.67017 0.392981,2.357887 1.522802,0.392982 5.944308,0.343857 2.028064,-0.24187 -2.028064,-1.428299 -0.589472,-1.277189 -0.638594,-4.07718 0.245613,-1.277656 0.04912,-2.554378 0.442104,-1.031575 -0.147368,-1.031576 0.491227,-0.736839 0.589471,-0.294736 0.982453,0.09824 5.157878,-1.866661 h 2.358355 l 1.326311,-0.147368 0.884207,-0.442103 h 1.129821 l 0.933331,0.687717 0.294735,1.375434 -0.09824,1.228066 -0.442103,1.129821 -0.147368,1.670169 v 1.424558 1.71976 l 0.147368,1.964905 0.294735,1.817539 0.442104,1.670169 -0.540349,1.228066 1.719292,0.687718 5.649573,0.540349 2.456132,-0.93333 1.031575,-0.884209 -3.929811,-1.031575 -0.491227,-0.73684 V 41.24787 l 1.522802,-3.684666 1.326312,-2.652623 0.589472,-1.719292 h 0.736839 l 0.835085,1.964905 2.308765,1.866661 2.210986,1.081166 5.599982,3.143849 2.063151,1.031576 3.340808,1.473679 2.308764,0.982453 2.063152,-0.147368 2.259641,-0.687717 2.063151,-1.080698 -0.294736,-0.835085 -1.67017,-0.982453 -1.719292,0.245613 -1.178944,-1.277189 -4.371916,-5.649571 -2.800458,-2.996482 -0.638594,-1.473679 -0.491227,-0.93333 -0.736839,-1.867129 -0.294737,-1.817538 v -1.621047 l 0.589472,-0.835085 0.785962,-0.442103 h 1.080699 l 1.670638,0.294735 0.785962,0.04912 0.442103,1.277189 0.884208,0.982453 1.031576,-0.245613 1.129821,0.245613 1.571924,1.178943 1.47368,0.785962 0.93333,0.196491 -0.04912,-1.129821 0.09825,-0.933331 1.964906,1.080699 0.688174,-0.245605 0.392981,-0.73684 1.178944,-0.73684 L 85.662814,23.562788 85.466323,22.580335 85.073342,20.910164 84.48387,19.682098 83.894399,18.503155 83.746562,16.685617 82.813232,14.769366 81.781657,13.000951 80.406223,11.232536 79.62026,10.348327 79.030789,10.053592 78.981666,9.218507 78.785176,8.1869315 78.195704,7.5483371 77.213251,6.9588653 76.181675,7.0571106 74.855364,7.4009692 H 74.020279 L 72.497009,6.8606201 70.433858,6.0250672 67.781236,5.3373502 65.128612,4.8952465 63.458442,4.6987558 60.657983,3.9127935 58.201852,3.5198123 H 55.352738 L 52.552748,3.7163029 49.899656,3.5198123 46.755807,2.73385 45.085638,2.4391142 42.727751,1.8496424 39.288697,1.5549065 36.93081,1.3092933 Z M 54.234613,14.276268 c 0.456606,0 0.83337,0.03494 1.130289,0.104796 0.296919,0.06736 0.622532,0.157192 0.976839,0.269472 v 1.227598 C 56.1072,15.740903 55.858935,15.626128 55.596948,15.533808 55.33496,15.441488 55.0081,15.395329 54.616366,15.395329 c -0.451616,0 -0.813409,0.08608 -1.085376,0.258245 -0.269473,0.169668 -0.457854,0.37302 -0.565144,0.610056 -0.104795,0.237036 -0.157193,0.466588 -0.157193,0.688653 0,0.261987 0.06113,0.504014 0.183391,0.726079 0.122261,0.219571 0.3069,0.396725 0.553916,0.531461 0.247017,0.132241 0.545184,0.198362 0.894501,0.198362 0.199609,0 0.411694,-0.0262 0.636254,-0.0786 v -0.610056 h -0.703622 v -1.044207 h 2.0697 v 2.492623 c -0.11228,0.04241 -0.208342,0.07735 -0.288186,0.104795 -0.07984,0.02745 -0.157193,0.0524 -0.232046,0.07485 -0.07236,0.02246 -0.178401,0.05115 -0.318128,0.08609 -0.237036,0.05489 -0.474072,0.09606 -0.711108,0.123509 -0.234541,0.02994 -0.482806,0.04491 -0.744793,0.04491 -0.52647,0 -1.013018,-0.09606 -1.459645,-0.288186 -0.446626,-0.192123 -0.804676,-0.490291 -1.074149,-0.8945 -0.266977,-0.404209 -0.400466,-0.900738 -0.400466,-1.489585 0,-0.379258 0.06861,-0.751031 0.205847,-1.115319 0.139727,-0.366782 0.351812,-0.659958 0.636256,-0.879528 0.234541,-0.182144 0.471577,-0.320623 0.711109,-0.415438 0.242026,-0.09731 0.477814,-0.162182 0.707365,-0.194619 0.229551,-0.03244 0.482806,-0.04865 0.759764,-0.04865 z m -37.127363,0.07111 h 5.04513 l -2.676015,3.944782 h 2.676015 v 1.242569 h -5.265948 l 2.6835,-3.948525 H 17.10725 Z m 7.552724,0 h 1.729117 l 2.286776,5.187351 h -1.601866 l -0.422923,-1.051692 h -2.253092 l -0.430408,1.051692 h -1.601866 z m 4.704546,0 h 1.564439 v 2.320461 l 1.878824,-2.320461 h 1.699176 l -1.931222,2.428998 2.245607,2.758353 h -1.908765 l -1.98362,-2.428997 v 2.428997 H 29.36452 Z m 7.818453,0 h 1.729118 l 2.286776,5.187351 h -1.601866 l -0.422923,-1.051692 h -2.253092 l -0.430408,1.051692 h -1.601866 z m 4.704546,0 h 1.56444 v 1.905023 h 2.354144 V 14.347378 H 47.3668 v 5.187351 h -1.560697 v -2.024787 h -2.354144 v 2.024789 h -1.56444 z m 6.789218,0 h 1.564439 v 5.187351 h -1.564439 z m 10.569322,0 h 1.729117 l 2.286775,5.187351 h -1.601866 l -0.422921,-1.051693 h -2.253093 l -0.430407,1.051692 h -1.601866 z m 4.704545,0 h 1.388534 l 2.6835,2.874376 v -2.874376 h 1.560697 v 5.187351 h -1.392277 l -2.690985,-2.889347 v 2.889347 h -1.549469 z m -38.418586,1.339879 -0.767249,1.893794 h 1.527012 z m 12.523,0 -0.76725,1.893794 h 1.527013 z m 22.063084,0 -0.767248,1.893794 h 1.527013 z" /></g></g><g
     inkscape:groupmode="layer"
     id="layer8"
     inkscape:label="decor"
     transform="matrix(0.07564881,0,0,0.07564881,1.0065999,0.99540372)"><path
       sodipodi:type="star"
       style="fill:#002a2e;fill-opacity:1;stroke:none;stroke-width:0.7;stroke-linecap:round;stroke-linejoin:round;stroke-dasharray:none;stroke-opacity:1"
       id="path21885"
       inkscape:flatsided="false"
       sodipodi:sides="10"
       sodipodi:cx="4.4508605"
       sodipodi:cy="5.9089012"
       sodipodi:r1="5.4791842"
       sodipodi:r2="2.7395923"
       sodipodi:arg1="0.9244941"
       sodipodi:arg2="1.2386534"
       inkscape:rounded="0"
       inkscape:randomized="0"
       d="M 7.7506364,10.283023 5.3441582,8.4987632 4.5493912,11.387199 3.6512708,8.5292108 1.3105106,10.398852 2.2637995,7.5587892 -0.72886301,7.6954967 1.7117112,5.9581665 -0.78975831,4.3097222 2.2058848,4.3387261 1.1510847,1.5347798 3.5575628,3.3190392 4.3523298,0.43060306 5.2504502,3.2885916 7.5912104,1.41895 6.6379215,4.2590132 9.630584,4.1223057 7.1900098,5.859636 9.6914793,7.5080802 6.6958362,7.4790764 Z"
       transform="matrix(0.55476748,0,0,0.55476748,0.72271952,0.11497952)" /><path
       sodipodi:type="star"
       style="fill:#002a2e;fill-opacity:1;stroke:none;stroke-width:0.7;stroke-linecap:round;stroke-linejoin:round;stroke-dasharray:none;stroke-opacity:1"
       id="path21885-3"
       inkscape:flatsided="false"
       sodipodi:sides="10"
       sodipodi:cx="4.4508605"
       sodipodi:cy="5.9089012"
       sodipodi:r1="5.4791842"
       sodipodi:r2="2.7395923"
       sodipodi:arg1="0.9244941"
       sodipodi:arg2="1.2386534"
       inkscape:rounded="0"
       inkscape:randomized="0"
       d="M 7.7506364,10.283023 5.3441582,8.4987632 4.5493912,11.387199 3.6512708,8.5292108 1.3105106,10.398852 2.2637995,7.5587892 -0.72886301,7.6954967 1.7117112,5.9581665 -0.78975831,4.3097222 2.2058848,4.3387261 1.1510847,1.5347798 3.5575628,3.3190392 4.3523298,0.43060306 5.2504502,3.2885916 7.5912104,1.41895 6.6379215,4.2590132 9.630584,4.1223057 7.1900098,5.859636 9.6914793,7.5080802 6.6958362,7.4790764 Z"
       transform="matrix(0.55476748,0,0,0.55476748,84.676622,0.08621803)" /></g></svg>
