<?xml version="1.0" encoding="UTF-8" standalone="no"?>
<svg
   height="20"
   width="24"
   version="1.1"
   id="svg1"
   sodipodi:docname="shield_fsa_hy_cy.svg"
   inkscape:version="1.3.2 (091e20e, 2023-11-25, custom)"
   xmlns:inkscape="http://www.inkscape.org/namespaces/inkscape"
   xmlns:sodipodi="http://sodipodi.sourceforge.net/DTD/sodipodi-0.dtd"
   xmlns="http://www.w3.org/2000/svg"
   xmlns:svg="http://www.w3.org/2000/svg">
  <defs
     id="defs1" />
  <sodipodi:namedview
     id="namedview1"
     pagecolor="#ffffff"
     bordercolor="#000000"
     borderopacity="0.25"
     inkscape:showpageshadow="2"
     inkscape:pageopacity="0.0"
     inkscape:pagecheckerboard="0"
     inkscape:deskcolor="#d1d1d1"
     inkscape:zoom="21.054104"
     inkscape:cx="7.1957466"
     inkscape:cy="14.15401"
     inkscape:window-width="1278"
     inkscape:window-height="1378"
     inkscape:window-x="-7"
     inkscape:window-y="30"
     inkscape:window-maximized="0"
     inkscape:current-layer="svg1" />
  <g
     id="Layer_2"
     data-name="Layer 2"
     transform="matrix(0.02974989,0,0,0.02974989,0.12405391,1.2381037)">
    <g
       id="Layer_1-2"
       data-name="Layer 1">
      <rect
         class="cls-1"
         x="12.5"
         y="12.5"
         width="771.83002"
         height="558.15002"
         rx="33.139999"
         id="rect1"
         style="fill:#ffffff;stroke:#231f20;stroke-width:25px;stroke-linejoin:round" />
      <path
         d="m 531.65,57.21 c -0.08,6.57 -2.17,12.71 -4.29,18.95 l 3.93,0.29 c 2.8,0.22 3.88,1.67 2.63,4.11 -2.09,4.09 -4.47,8 -6.74,12 -0.26,0.47 -0.54,0.93 -0.71,1.21 3,1.89 5.93,3.62 8.72,5.59 2.38,1.68 2.19,3.5 -0.34,4.91 -4.51,2.51 -7.72,6.41 -11.37,10.12 l 7.88,4.82 c 2.54,1.57 2.76,2.65 0.95,4.92 A 69.74,69.74 0 0 1 510.65,142 l -1.89,1 c 3.41,3.32 6.8,6.58 10.13,9.9 a 15.06,15.06 0 0 1 2.08,2.75 c 1.06,1.7 0.53,3.4 -1.4,3.86 -8,1.92 -14.82,6.24 -21.86,10.15 -14.33,8 -29.18,8.91 -44.37,2.84 -6.38,-2.54 -12.8,-4.07 -19.7,-3.34 A 36.65,36.65 0 0 0 412,178.94 c -3,2.81 -5.89,5.8 -8.85,8.69 -0.47,0.46 -1,1.12 -1.56,1.18 a 3.92,3.92 0 0 1 -2.74,-0.44 c -0.51,-0.46 -0.51,-1.74 -0.36,-2.59 0.11,-0.63 0.8,-1.17 1.3,-1.7 3.5,-3.71 7.33,-7.16 10.48,-11.15 8.69,-11 10.48,-23.29 5.52,-36.34 -2.48,-6.53 -4.54,-13.06 -4.75,-20.08 A 52,52 0 0 1 418.89,87.4 C 422.58,81.28 426,75 427.76,68 c 0.58,-2.38 2.38,-2.77 4.5,-1.24 a 44.47,44.47 0 0 1 11.33,11.72 4.52,4.52 0 0 0 0.51,0.46 c 1.09,-1.93 2.11,-3.82 3.23,-5.66 a 68.46,68.46 0 0 1 16.05,-18.45 c 1.88,-1.48 3.22,-1.26 4.49,0.8 1.59,2.58 3.15,5.18 4.73,7.77 0.06,0.09 0.19,0.13 0.43,0.29 3.52,-3.37 7.31,-6.53 9.81,-10.87 1.68,-2.91 3.27,-3.17 5.18,-0.5 1.91,2.67 3.56,5.6 5.44,8.61 1.65,-1 3.49,-2.28 5.42,-3.37 2.58,-1.45 5.18,-2.9 7.86,-4.14 2.51,-1.15 3.91,-0.16 4.12,2.65 0.1,1.27 0.19,2.53 0.29,3.93 6.25,-2.12 12.38,-4.21 19,-4.3 z m -19.43,95.55 c -0.23,-0.25 -0.45,-0.52 -0.69,-0.76 a 33.21,33.21 0 0 0 -9.66,-6.7 3.34,3.34 0 0 1 -1.75,-2.39 3.24,3.24 0 0 1 1.83,-2.3 63.49,63.49 0 0 0 19.3,-11.8 c 1.47,-1.27 2.77,-2.74 4.12,-4.09 -6.46,0.42 -12.82,1 -19.18,1.22 a 332.38,332.38 0 0 1 -39.19,-1.25 3.43,3.43 0 0 0 -3.12,0.92 c -7.47,7.57 -15,15.07 -22.53,22.59 -0.32,0.32 -0.57,0.69 -1.17,1.44 12.22,-3.65 24.22,-4.35 36.36,-3.5 a 179.25,179.25 0 0 1 35.68,6.62 z m -0.24,4 v -0.75 c -8.17,-1.8 -16.28,-3.92 -24.51,-5.33 a 107.39,107.39 0 0 0 -39.52,0.27 c -7.81,1.58 -15.12,4 -20.18,10.76 a 42.54,42.54 0 0 1 -4.27,4.33 1.64,1.64 0 0 0 1.21,0 42.5,42.5 0 0 1 16.55,-1.77 c 5.85,0.47 11.12,2.85 16.56,4.73 9.86,3.41 20,3.8 29.61,-0.15 8.45,-3.42 16.4,-8.01 24.57,-12.1 z m -79.47,-4.34 a 6.85,6.85 0 0 0 0.58,-0.45 Q 445,140 457,128.13 a 2.39,2.39 0 0 0 0.59,-2.61 81.77,81.77 0 0 1 -1.93,-20.27 c 0.2,-13.69 2.55,-27.08 5.77,-40.33 0.16,-0.66 0.27,-1.32 0.41,-2 l -0.51,-0.24 c -2.71,3.42 -5.71,6.65 -8,10.3 -2.47,3.86 -4.24,8.15 -6.45,12.17 a 4.51,4.51 0 0 1 -2.41,2.07 c -1.27,0.35 -2,-0.8 -2.51,-1.92 -0.24,-0.55 -0.5,-1.1 -0.77,-1.64 a 27,27 0 0 0 -7.25,-9 c 7.67,26.08 6.52,51.87 -1.43,77.75 z M 430.67,75.8 c -3.09,5.69 -6,11.13 -9,16.52 a 45.75,45.75 0 0 0 -5.87,23.38 c 0.1,6.67 2,12.9 4.43,19 a 40.71,40.71 0 0 1 1.09,27.66 12.56,12.56 0 0 0 -0.25,1.25 c 1.71,-1.37 3.48,-2.69 4.38,-4.46 a 67.8,67.8 0 0 0 5.15,-12 c 6.09,-21.55 7.29,-43.29 1.67,-65.16 -0.52,-1.99 -1.05,-4.06 -1.6,-6.2 z m 29.67,48.2 0.57,0.16 c 4.55,-4.54 9.1,-9.07 13.61,-13.65 a 2.14,2.14 0 0 0 0.41,-1.63 c -1.58,-8.71 -0.09,-17 3.24,-25.1 a 78.67,78.67 0 0 0 5.71,-19.86 c 0.19,-1.45 0.31,-2.9 0.46,-4.29 -3.51,3.17 -6.86,6.24 -10.26,9.24 -1.76,1.55 -3.19,1.24 -4.42,-0.82 -1.23,-2.06 -2.54,-4.32 -4.06,-6.91 -5.11,21 -8.91,41.62 -5.26,62.86 z m 67.41,-20.72 -0.2,-0.47 c -4,1.06 -8.1,2.07 -12.13,3.17 a 39.7,39.7 0 0 1 -27.56,-2 2,2 0 0 0 -2.67,0.43 c -5.28,5.38 -10.63,10.68 -16,16 -0.31,0.31 -0.55,0.69 -1,1.26 19.07,1.32 37.82,2.17 56.59,-0.51 -1.88,-1.31 -3.81,-2.42 -5.72,-3.57 -1.91,-1.15 -2.08,-2.55 -0.71,-4.21 1.37,-1.66 2.62,-3.19 4,-4.7 1.78,-1.9 3.65,-3.68 5.4,-5.43 z m -49.81,3.55 a 4.27,4.27 0 0 0 0.73,-0.44 q 9.56,-9.52 19.06,-19.09 a 2.15,2.15 0 0 0 0.39,-1.75 23.77,23.77 0 0 1 0.19,-12.61 c 1.2,-4.08 2.83,-8 4.22,-11.94 0.11,0 -0.1,0 -0.24,0.06 -2.7,1.73 -5.41,3.45 -8.08,5.22 -2.27,1.5 -3.6,1.11 -4.67,-1.4 -0.56,-1.32 -1.16,-2.63 -1.74,-3.95 a 86.84,86.84 0 0 1 -6.62,23.92 44,44 0 0 0 -1.9,5.49 38.6,38.6 0 0 0 -1.34,16.46 z m 10.91,-6.08 a 36.85,36.85 0 0 0 14.8,3.55 c 8,0.34 15.21,-3.25 23.44,-4.47 -1.74,-0.77 -3,-1.35 -4.25,-1.88 -3,-1.24 -3.34,-2.38 -1.58,-5.07 2.12,-3.22 4.16,-6.48 6.37,-9.92 a 5.14,5.14 0 0 0 -0.86,0.11 55.39,55.39 0 0 1 -21.72,2.72 3.23,3.23 0 0 0 -2.15,1 c -3.92,3.81 -7.76,7.7 -11.63,11.57 z m 17.52,-38.86 c -4.66,7.07 -7.07,18 -5,21.66 l 22.19,-22.19 c -0.93,0.19 -1.46,0.25 -2,0.41 Q 516,63.6 510.37,65.49 c -2.38,0.8 -3.59,0.05 -3.88,-2.46 z m 0.75,20.75 a 51.47,51.47 0 0 0 15.67,-1.79 c -1.66,-1.5 -1.39,-3 -0.68,-4.63 a 30.42,30.42 0 0 0 1.12,-2.87 c 1,-3 1.89,-6 2.82,-9 l -0.41,-0.18 z"
         id="path1" />
      <path
         class="cls-2"
         d="m 512.22,152.76 a 179.25,179.25 0 0 0 -35.65,-6.62 c -12.14,-0.85 -24.14,-0.15 -36.36,3.5 0.6,-0.75 0.85,-1.12 1.17,-1.44 7.51,-7.52 15.06,-15 22.53,-22.59 a 3.43,3.43 0 0 1 3.12,-0.92 332.38,332.38 0 0 0 39.16,1.25 c 6.36,-0.23 12.72,-0.8 19.18,-1.22 -1.35,1.35 -2.65,2.82 -4.12,4.09 a 63.49,63.49 0 0 1 -19.3,11.8 3.24,3.24 0 0 0 -1.83,2.3 3.34,3.34 0 0 0 1.75,2.39 33.21,33.21 0 0 1 9.66,6.7 c 0.24,0.24 0.47,0.51 0.69,0.76 z"
         id="path2"
         style="fill:#ffffff" />
      <path
         class="cls-2"
         d="m 512,156.75 c -8.15,4.09 -16.1,8.68 -24.51,12.13 -9.65,4 -19.75,3.56 -29.61,0.15 -5.44,-1.88 -10.71,-4.26 -16.56,-4.73 a 42.5,42.5 0 0 0 -16.55,1.77 1.64,1.64 0 0 1 -1.21,0 42.54,42.54 0 0 0 4.27,-4.33 c 5.06,-6.79 12.37,-9.18 20.18,-10.76 a 107.39,107.39 0 0 1 39.52,-0.27 c 8.23,1.41 16.34,3.53 24.51,5.33 z"
         id="path3"
         style="fill:#ffffff" />
      <path
         class="cls-2"
         d="m 432.51,152.41 c 7.95,-25.88 9.1,-51.67 1.36,-77.69 a 27,27 0 0 1 7.25,9 c 0.27,0.54 0.53,1.09 0.77,1.64 0.5,1.12 1.24,2.27 2.51,1.92 a 4.51,4.51 0 0 0 2.41,-2.07 c 2.21,-4 4,-8.31 6.45,-12.17 2.33,-3.65 5.33,-6.88 8,-10.3 l 0.51,0.24 c -0.14,0.66 -0.25,1.32 -0.41,2 -3.22,13.25 -5.57,26.64 -5.77,40.33 a 81.77,81.77 0 0 0 1.93,20.27 2.39,2.39 0 0 1 -0.59,2.61 Q 445,140 433.09,152 a 6.85,6.85 0 0 1 -0.58,0.41 z"
         id="path4"
         style="fill:#ffffff" />
      <path
         class="cls-2"
         d="m 430.67,75.79 c 0.55,2.14 1.08,4.18 1.6,6.22 5.62,21.87 4.42,43.61 -1.67,65.16 a 67.8,67.8 0 0 1 -5.15,12 c -0.9,1.77 -2.67,3.09 -4.38,4.46 a 12.56,12.56 0 0 1 0.25,-1.25 40.71,40.71 0 0 0 -1.09,-27.66 c -2.46,-6.13 -4.33,-12.36 -4.43,-19 a 45.75,45.75 0 0 1 5.87,-23.38 c 3,-5.42 5.91,-10.86 9,-16.55 z"
         id="path5"
         style="fill:#ffffff" />
      <path
         class="cls-2"
         d="m 460.34,124 c -3.65,-21.21 0.15,-41.83 5.26,-62.86 1.52,2.59 2.78,4.76 4.06,6.91 1.28,2.15 2.66,2.37 4.42,0.82 3.4,-3 6.75,-6.07 10.26,-9.24 -0.15,1.39 -0.27,2.84 -0.46,4.29 a 78.67,78.67 0 0 1 -5.71,19.86 c -3.33,8.06 -4.82,16.39 -3.24,25.1 a 2.14,2.14 0 0 1 -0.41,1.63 c -4.51,4.58 -9.06,9.11 -13.61,13.65 z"
         id="path6"
         style="fill:#ffffff" />
      <path
         class="cls-2"
         d="m 527.75,103.25 c -1.79,1.79 -3.62,3.53 -5.34,5.37 -1.41,1.51 -2.71,3.11 -4,4.7 -1.29,1.59 -1.12,3.12 0.71,4.21 1.83,1.09 3.84,2.26 5.72,3.57 -18.77,2.68 -37.52,1.83 -56.59,0.51 0.46,-0.57 0.7,-1 1,-1.26 5.33,-5.34 10.68,-10.64 16,-16 a 2,2 0 0 1 2.67,-0.43 39.7,39.7 0 0 0 27.56,2 c 4,-1.1 8.09,-2.11 12.13,-3.17 z"
         id="path7"
         style="fill:#ffffff" />
      <path
         class="cls-2"
         d="m 477.94,106.8 a 38.6,38.6 0 0 1 1.34,-16.49 44,44 0 0 1 1.9,-5.49 86.84,86.84 0 0 0 6.62,-23.92 c 0.58,1.32 1.18,2.63 1.74,3.95 1.07,2.51 2.4,2.9 4.67,1.4 2.67,-1.77 5.38,-3.49 8.08,-5.22 0.14,-0.09 0.35,-0.08 0.24,-0.06 -1.39,3.9 -3,7.86 -4.22,11.94 a 23.77,23.77 0 0 0 -0.19,12.61 2.15,2.15 0 0 1 -0.39,1.75 q -9.48,9.58 -19.06,19.09 a 4.27,4.27 0 0 1 -0.73,0.44 z"
         id="path8"
         style="fill:#ffffff" />
      <path
         class="cls-2"
         d="m 488.85,100.72 2.42,-2.42 c 3.87,-3.87 7.71,-7.76 11.63,-11.57 a 3.23,3.23 0 0 1 2.15,-1 55.39,55.39 0 0 0 21.72,-2.73 5.14,5.14 0 0 1 0.86,-0.11 c -2.21,3.44 -4.25,6.7 -6.37,9.92 -1.76,2.69 -1.43,3.83 1.58,5.07 1.27,0.53 2.51,1.11 4.25,1.88 -8.23,1.22 -15.44,4.81 -23.44,4.47 a 36.85,36.85 0 0 1 -14.8,-3.51 z"
         id="path9"
         style="fill:#ffffff" />
      <path
         class="cls-2"
         d="m 506.37,61.86 0.12,1.17 c 0.29,2.51 1.5,3.26 3.88,2.46 q 5.58,-1.89 11.19,-3.75 c 0.5,-0.16 1,-0.22 2,-0.41 l -22.23,22.19 c -2.03,-3.71 0.38,-14.59 5.04,-21.66 z"
         id="path10"
         style="fill:#ffffff" />
      <path
         class="cls-2"
         d="m 507.12,82.61 18.52,-18.52 0.41,0.18 c -0.93,3 -1.85,6 -2.82,9 a 30.42,30.42 0 0 1 -1.12,2.87 c -0.71,1.59 -1,3.13 0.68,4.63 a 51.47,51.47 0 0 1 -15.67,1.84 z"
         id="path11"
         style="fill:#ffffff" />
      <path
         d="m 266.74,55.62 c 6.58,0.09 12.71,2.18 19,4.3 0.1,-1.4 0.19,-2.66 0.29,-3.93 0.21,-2.81 1.66,-3.89 4.1,-2.64 4.09,2.09 8,4.48 12,6.74 l 1.21,0.71 c 1.89,-3 3.63,-5.92 5.6,-8.71 1.68,-2.38 3.49,-2.2 4.9,0.34 2.51,4.5 6.42,7.71 10.12,11.36 l 4.82,-7.87 c 1.58,-2.55 2.65,-2.76 4.92,-1 a 69.49,69.49 0 0 1 17.79,21.66 c 0.4,0.72 0.78,1.45 1,1.88 3.32,-3.41 6.57,-6.8 9.9,-10.12 a 14.45,14.45 0 0 1 2.75,-2.09 c 1.7,-1.06 3.4,-0.52 3.86,1.41 1.91,8 6.23,14.81 10.14,21.86 8,14.33 8.91,29.17 2.85,44.37 -2.55,6.37 -4.07,12.79 -3.35,19.7 a 36.6,36.6 0 0 0 9.83,21.64 c 2.81,3 5.79,5.9 8.68,8.86 0.46,0.47 1.12,1 1.18,1.55 a 3.92,3.92 0 0 1 -0.44,2.74 c -0.46,0.51 -1.74,0.52 -2.59,0.36 -0.62,-0.11 -1.17,-0.8 -1.7,-1.3 -3.71,-3.5 -7.16,-7.32 -11.15,-10.47 -11,-8.69 -23.29,-10.49 -36.34,-5.53 -6.52,2.56 -13.05,4.56 -20.11,4.81 a 52,52 0 0 1 -29.1,-7.85 c -6.12,-3.71 -12.38,-7.17 -19.45,-8.89 -2.38,-0.58 -2.77,-2.38 -1.23,-4.5 a 44.44,44.44 0 0 1 11.78,-11.33 3.15,3.15 0 0 0 0.47,-0.51 c -1.93,-1.09 -3.83,-2.1 -5.66,-3.22 a 68.52,68.52 0 0 1 -18.45,-16.06 c -1.49,-1.88 -1.26,-3.22 0.8,-4.49 2.57,-1.59 5.17,-3.15 7.76,-4.73 0.09,0 0.14,-0.19 0.3,-0.43 -3.38,-3.51 -6.54,-7.31 -10.87,-9.81 -2.91,-1.68 -3.17,-3.27 -0.51,-5.18 2.66,-1.91 5.61,-3.55 8.61,-5.43 -1,-1.66 -2.28,-3.49 -3.36,-5.42 -1.46,-2.58 -2.91,-5.18 -4.15,-7.87 -1.15,-2.5 -0.16,-3.9 2.65,-4.11 l 3.93,-0.3 c -2.12,-6.24 -4.21,-12.38 -4.3,-19 z"
         id="path12" />
      <path
         class="cls-3"
         d="m 67.7,128.62 a 6.17,6.17 0 0 0 5.84,-3.82 l 5.4,2.67 q -3.33,6.76 -11.24,6.93 a 11.35,11.35 0 0 1 -9.9,-5 q -3.46,-5 -3.46,-13.9 0,-8.9 3.46,-13.91 a 11.34,11.34 0 0 1 9.9,-5 q 7.9,0.15 11.24,6.92 l -5.4,2.67 a 6.16,6.16 0 0 0 -5.84,-3.81 5.8,5.8 0 0 0 -5.56,3.62 21.88,21.88 0 0 0 -1.75,9.47 21.83,21.83 0 0 0 1.75,9.54 5.8,5.8 0 0 0 5.56,3.62 z"
         id="path13"
         style="fill:#231f20" />
      <path
         class="cls-3"
         d="m 97.15,134.45 a 11.4,11.4 0 0 1 -9.9,-4.88 q -3.47,-4.87 -3.46,-14 0,-9 3.46,-13.91 a 11.34,11.34 0 0 1 9.9,-5 q 6.55,0 9.95,5 3.4,5 3.41,13.91 0,9.16 -3.41,14 -3.41,4.84 -9.95,4.88 z m 0,-32 a 5.81,5.81 0 0 0 -5.56,3.62 22,22 0 0 0 -1.8,9.36 q 0,6.43 1.72,9.76 a 5.76,5.76 0 0 0 5.64,3.27 6,6 0 0 0 5.73,-3.43 c 1.05,-2.22 1.62,-5.42 1.69,-9.6 0.07,-4.18 -0.68,-7.22 -1.83,-9.44 a 6.25,6.25 0 0 0 -5.59,-3.55 z"
         id="path14"
         style="fill:#231f20" />
      <path
         class="cls-3"
         d="m 140.18,120.71 a 16.25,16.25 0 0 1 -1.69,7.58 10.52,10.52 0 0 1 -4.36,4.44 12.69,12.69 0 0 1 -12.76,0 10.91,10.91 0 0 1 -4.42,-4.44 16.75,16.75 0 0 1 -1.64,-7.58 V 97.26 h 5.79 v 23.45 a 8.52,8.52 0 0 0 1.82,5.7 6.5,6.5 0 0 0 9.66,0 8.57,8.57 0 0 0 1.82,-5.7 V 97.26 h 5.78 z"
         id="path15"
         style="fill:#231f20" />
      <path
         class="cls-3"
         d="m 170.45,133.8 h -5.12 l -14,-24.76 v 24.76 h -5.78 V 97.26 h 5.78 l 13.31,23.34 V 97.26 h 5.78 z"
         id="path16"
         style="fill:#231f20" />
      <path
         class="cls-3"
         d="M 198.43,102.38 H 190 v 31.42 h -5.8 v -31.42 h -8.35 v -5.12 h 22.58 z"
         id="path17"
         style="fill:#231f20" />
      <path
         class="cls-3"
         d="m 233.88,97.26 -12.65,20.67 v 15.87 h -5.78 V 117.93 L 202.63,97.26 h 6.93 l 8.73,14.12 8.83,-14.12 z"
         id="path18"
         style="fill:#231f20" />
      <path
         class="cls-3"
         d="m 601.42,134.45 h -6.27 l -5.89,-15.87 h -6.93 v 15.87 h -5.78 V 97.91 H 591 a 8.81,8.81 0 0 1 7.07,3.24 10.93,10.93 0 0 1 2.59,7 10.42,10.42 0 0 1 -1.58,5.49 9.32,9.32 0 0 1 -4.09,3.73 z m -6.49,-26.12 a 4.2,4.2 0 0 0 -1.28,-3.28 4.48,4.48 0 0 0 -2.86,-1.2 h -8.46 v 9 H 591 a 3.72,3.72 0 0 0 2.79,-1.2 4.61,4.61 0 0 0 1.14,-3.32 z"
         id="path19"
         style="fill:#231f20" />
      <path
         class="cls-3"
         d="m 619.47,135.11 a 11.42,11.42 0 0 1 -9.9,-4.88 q -3.45,-4.89 -3.46,-14 0,-8.94 3.46,-13.91 a 11.34,11.34 0 0 1 9.9,-5 c 4.37,0 7.68,1.65 10,5 2.32,3.35 3.41,8 3.41,13.91 0,5.91 -1.14,10.79 -3.41,14 -2.27,3.21 -5.63,4.88 -10,4.88 z m 0,-32 a 5.8,5.8 0 0 0 -5.56,3.63 22.22,22.22 0 0 0 -1.8,9.35 c 0,4.29 0.57,7.55 1.72,9.76 a 5.79,5.79 0 0 0 5.64,3.28 c 2.77,-0.08 4.68,-1.22 5.73,-3.44 1.05,-2.22 1.62,-5.42 1.69,-9.6 0.07,-4.18 -0.68,-7.22 -1.83,-9.43 a 6.26,6.26 0 0 0 -5.59,-3.57 z"
         id="path20"
         style="fill:#231f20" />
      <path
         class="cls-3"
         d="m 662.51,121.36 a 16.35,16.35 0 0 1 -1.69,7.58 10.62,10.62 0 0 1 -4.37,4.45 12.69,12.69 0 0 1 -12.76,0 11,11 0 0 1 -4.42,-4.45 16.72,16.72 0 0 1 -1.63,-7.58 V 97.91 h 5.78 v 23.45 a 8.53,8.53 0 0 0 1.82,5.7 6.48,6.48 0 0 0 9.66,0 8.48,8.48 0 0 0 1.83,-5.7 V 97.91 h 5.78 z"
         id="path21"
         style="fill:#231f20" />
      <path
         class="cls-3"
         d="M 690.48,103 H 682 v 31.41 h -5.78 V 103 h -8.32 v -5.09 h 22.58 z"
         id="path22"
         style="fill:#231f20" />
      <path
         class="cls-3"
         d="M 718.68,134.45 H 696 V 97.91 h 21.55 v 5.78 h -15.78 v 9 h 10.64 v 5.89 h -10.64 v 10 h 16.91 z"
         id="path23"
         style="fill:#231f20" />
    </g>
  </g>
</svg>
