<?xml version="1.0" encoding="UTF-8" standalone="no"?>
<svg
   width="23.120821"
   height="23.12081"
   version="1.1"
   viewBox="0 0 6.1173837 6.1173813"
   xml:space="preserve"
   id="svg5"
   sodipodi:docname="shield_deo_aa.svg"
   inkscape:version="1.3 (0e150ed, 2023-07-21)"
   xmlns:inkscape="http://www.inkscape.org/namespaces/inkscape"
   xmlns:sodipodi="http://sodipodi.sourceforge.net/DTD/sodipodi-0.dtd"
   xmlns:xlink="http://www.w3.org/1999/xlink"
   xmlns="http://www.w3.org/2000/svg"
   xmlns:svg="http://www.w3.org/2000/svg"><defs
     id="defs5"><clipPath
       id="clip0"><rect
         x="1705"
         y="751"
         width="1585"
         height="1591"
         id="rect1" /></clipPath><clipPath
       id="clip0-3"><rect
         x="1631"
         y="275"
         width="1036"
         height="1040"
         id="rect1-8" /></clipPath><clipPath
       id="clip0-2"><rect
         x="151"
         y="696"
         width="944"
         height="1128"
         id="rect1-6" /></clipPath><linearGradient
       inkscape:collect="always"
       xlink:href="#swatch8"
       id="linearGradient8-7"
       x1="115.66527"
       y1="155.64751"
       x2="126.66527"
       y2="155.64751"
       gradientUnits="userSpaceOnUse" /><linearGradient
       id="swatch8"
       inkscape:swatch="solid"
       inkscape:label="Background"
       gradientTransform="matrix(0.27925212,0,0,0.27368434,93.684281,135.67671)"><stop
         style="stop-color:#242d74;stop-opacity:1;"
         offset="0"
         id="stop8" /></linearGradient><inkscape:path-effect
       effect="fillet_chamfer"
       id="path-effect8-92"
       is_visible="true"
       lpeversion="1"
       nodesatellites_param="F,0,0,1,0,0,0,1 @ F,0,1,1,0,0.96349156,0,1 @ F,0,0,1,0,0,0,1 @ F,0,0,1,0,0.96349156,0,1 @ F,0,0,1,0,0,0,1"
       radius="0"
       unit="px"
       method="auto"
       mode="F"
       chamfer_steps="1"
       flexible="false"
       use_knot_distance="true"
       apply_no_radius="true"
       apply_with_radius="true"
       only_selected="false"
       hide_knots="false" /><inkscape:path-effect
       effect="fillet_chamfer"
       id="path-effect8-9-2"
       is_visible="true"
       lpeversion="1"
       nodesatellites_param="F,0,0,1,0,0,0,1 @ F,0,1,1,0,0.96349156,0,1 @ F,0,0,1,0,0,0,1 @ F,0,0,1,0,0.96349156,0,1 @ F,0,0,1,0,0,0,1"
       radius="0"
       unit="px"
       method="auto"
       mode="F"
       chamfer_steps="1"
       flexible="false"
       use_knot_distance="true"
       apply_no_radius="true"
       apply_with_radius="true"
       only_selected="false"
       hide_knots="false" /></defs><sodipodi:namedview
     id="namedview5"
     pagecolor="#ffffff"
     bordercolor="#000000"
     borderopacity="0.25"
     inkscape:showpageshadow="2"
     inkscape:pageopacity="0.0"
     inkscape:pagecheckerboard="0"
     inkscape:deskcolor="#d1d1d1"
     inkscape:document-units="mm"
     inkscape:zoom="7.9657607"
     inkscape:cx="9.7291398"
     inkscape:cy="5.2097975"
     inkscape:window-width="1088"
     inkscape:window-height="1378"
     inkscape:window-x="1148"
     inkscape:window-y="25"
     inkscape:window-maximized="0"
     inkscape:current-layer="svg5" /><g
     id="g14"
     style="display:inline"
     transform="matrix(0.55612583,0,0,0.55612583,-64.324444,-83.500909)"><path
       style="fill:url(#linearGradient8-7);fill-opacity:1;stroke:url(#swatch8);stroke-width:1;stroke-linecap:butt;stroke-linejoin:round;stroke-miterlimit:2;stroke-dasharray:none;stroke-opacity:1;paint-order:markers fill stroke"
       d="m 116.16527,150.64751 v 6.53651 a 1.5589621,1.5589621 58.282526 0 0 0.86177,1.39438 l 4.13823,2.06911 4.13823,-2.06911 a 1.5589621,1.5589621 121.71747 0 0 0.86177,-1.39438 l 0,-6.53651 z"
       id="path8-7"
       inkscape:path-effect="#path-effect8-92"
       inkscape:original-d="m 116.16527,150.64751 v 7.5 l 5,2.5 5,-2.5 v -7.5 z" /><path
       style="fill:none;fill-opacity:1;stroke:#ffffff;stroke-width:0.2;stroke-linecap:butt;stroke-linejoin:round;stroke-miterlimit:2;stroke-dasharray:none;stroke-opacity:1;paint-order:markers fill stroke"
       d="m 116.16527,150.64751 v 6.53651 a 1.5589621,1.5589621 58.282526 0 0 0.86177,1.39438 l 4.13823,2.06911 4.13823,-2.06911 a 1.5589621,1.5589621 121.71747 0 0 0.86177,-1.39438 l 0,-6.53651 z"
       id="path8-0-3"
       inkscape:path-effect="#path-effect8-9-2"
       inkscape:original-d="m 116.16527,150.64751 v 7.5 l 5,2.5 5,-2.5 v -7.5 z" /><path
       fill="#da251d"
       d="m 121.84512,158.74012 c -0.0225,-0.18233 -0.17123,-0.51818 -0.57398,-0.58361 -0.0416,-0.008 -0.0792,-0.009 -0.1058,-0.009 -0.0266,0 -0.0642,0.003 -0.10579,0.009 -0.40275,0.0653 -0.55134,0.40128 -0.57399,0.58361 -0.0243,0.19628 0.0789,0.46975 0.15137,0.67725 l -0.0936,0.039 0.0776,0.19112 c 0,0 0.25774,-0.0981 0.33157,-0.125 0,0 -0.13701,-0.36122 -0.16931,-0.48569 -0.0105,-0.044 -0.0327,-0.14586 -0.0327,-0.17873 0,-0.10609 0.0167,-0.18609 0.0719,-0.26422 0.0759,-0.1076 0.20875,-0.17709 0.34219,-0.17865 2.4e-4,1e-5 4.2e-4,0 6.9e-4,0 2.2e-4,0 4.2e-4,1e-5 6.7e-4,0 0.13356,9.1e-4 0.26623,0.0711 0.34219,0.17865 0.0552,0.0782 0.0719,0.15819 0.0719,0.26422 0,0.0329 -0.0212,0.13491 -0.0327,0.17873 -0.0323,0.12455 -0.16928,0.48569 -0.16928,0.48569 0.0738,0.0267 0.33156,0.125 0.33156,0.125 l 0.0776,-0.19112 -0.0936,-0.039 c 0.0723,-0.2075 0.17571,-0.48097 0.15136,-0.67725 z m -1.28139,-0.0563 0.1097,0.008 -0.008,0.10969 -0.10969,-0.008 z m 2.9e-4,0.24363 0.10759,-0.0228 0.0228,0.10759 -0.10759,0.0228 z m 0.21083,0.30896 -0.10309,0.0381 -0.038,-0.10324 0.10309,-0.0381 z m -0.0728,-0.62772 -0.0971,-0.0516 0.0516,-0.0971 0.0971,0.0516 z m 0.74458,-0.34013 c -0.005,0.009 -0.0299,-0.006 -0.0656,-0.003 -0.0419,0.003 -0.0981,0.0281 -0.1337,0.0429 -0.0318,0.0135 -0.0606,0.0135 -0.0828,0.0135 0,0 -1e-5,0 -1e-5,0 -2.4e-4,0 -4.4e-4,0 -6.9e-4,0 -2.4e-4,0 -4.4e-4,0 -6.8e-4,0 0,0 -1e-5,0 -1e-5,0 -0.0221,-2e-5 -0.051,-2.9e-4 -0.0828,-0.0135 -0.0354,-0.015 -0.0917,-0.0399 -0.1337,-0.0429 -0.0359,-0.003 -0.062,0.012 -0.0656,0.003 -0.003,-0.008 0.006,-0.012 0.0171,-0.0155 0.0291,-0.008 0.0669,-0.0197 0.1217,-0.006 0.0363,0.009 0.11224,0.0215 0.14406,0.0216 0.0317,-9e-5 0.10774,-0.012 0.14406,-0.0216 0.0546,-0.015 0.0924,-0.005 0.1217,0.006 0.012,0.004 0.0199,0.007 0.0171,0.0155 z m 0.29361,0.76644 -0.10759,-0.0228 0.0228,-0.1076 0.1076,0.0228 z m 0.03,-0.24142 -0.10969,0.007 -0.008,-0.10969 0.1097,-0.008 z m -0.19679,-0.28194 0.0971,-0.0516 0.0516,0.0971 -0.0971,0.0516 z m 0.0819,0.76284 -0.10309,-0.0381 0.0381,-0.10309 0.10309,0.0381 z"
       id="path25030-2"
       style="fill:#ffffff;fill-opacity:1;stroke-width:0.0141924" /></g></svg>
