<?xml version="1.0" encoding="UTF-8" standalone="no"?>
<svg
   width="26.617496"
   height="26.617496"
   xml:space="preserve"
   version="1.1"
   id="svg1"
   sodipodi:docname="shield_fsa_oa.svg"
   inkscape:version="1.3 (0e150ed, 2023-07-21)"
   xmlns:inkscape="http://www.inkscape.org/namespaces/inkscape"
   xmlns:sodipodi="http://sodipodi.sourceforge.net/DTD/sodipodi-0.dtd"
   xmlns="http://www.w3.org/2000/svg"
   xmlns:svg="http://www.w3.org/2000/svg"><defs
   id="defs1" /><sodipodi:namedview
   id="namedview1"
   pagecolor="#ffffff"
   bordercolor="#000000"
   borderopacity="0.25"
   inkscape:showpageshadow="2"
   inkscape:pageopacity="0.0"
   inkscape:pagecheckerboard="0"
   inkscape:deskcolor="#d1d1d1"
   inkscape:zoom="18.656257"
   inkscape:cx="12.623111"
   inkscape:cy="14.070346"
   inkscape:window-width="1088"
   inkscape:window-height="1378"
   inkscape:window-x="1112"
   inkscape:window-y="25"
   inkscape:window-maximized="0"
   inkscape:current-layer="svg1" />&#10; &#10; &#10;<g
   id="g11"
   style="clip-rule:evenodd;fill-rule:evenodd;image-rendering:optimizeQuality;shape-rendering:geometricPrecision;text-rendering:geometricPrecision"
   transform="matrix(0.02464583,0,0,0.02464583,0.01232291,0.01232291)"><g
     id="g2"><path
       style="opacity:1"
       fill="#010202"
       d="m 43.5,-0.5 c 330.667,0 661.333,0 992,0 14.95,3.29735 26.62,11.2974 35,24 -0.07,1.5269 0.59,2.5269 2,3 3.32,5.2909 5.65,10.9575 7,17 0,330.667 0,661.333 0,992 -5.67,23.67 -20.33,38.33 -44,44 -330.667,0 -661.333,0 -992,0 -6.0425,-1.35 -11.7091,-3.68 -17,-7 -0.4731,-1.41 -1.4731,-2.07 -3,-2 -12.7026,-8.38 -20.70265,-20.05 -24,-35 0,-330.667 0,-661.333 0,-992 0.666667,0 1,-0.3333 1,-1 1.42381,-2.0145 2.09047,-4.3478 2,-7 1.7037,-6.6859 5.03703,-12.3526 10,-17 1.4063,-0.4731 2.073,-1.4731 2,-3 8.0833,-8.20822 17.75,-13.54156 29,-16 z"
       id="path1" /></g><g
     id="g3"><path
       style="opacity:1"
       fill="#00399b"
       d="m 1056.5,1059.5 c -102.972,-101.306 -205.306,-203.306 -307,-306 87.721,-12.897 145.887,-61.23 174.5,-145 6.993,-25.517 9.827,-51.517 8.5,-78 0.403,-82.725 -34.597,-145.225 -105,-187.5 -22.937,-12.201 -47.27,-20.201 -73,-24 -144.4,-1.496 -288.733,-1.996 -433,-1.5 C 221.86,218.194 122.194,118.86 22.5,19.5 29.651,12.4262 38.3176,8.2595 48.5,7 c 327.333,-0.66667 654.667,-0.66667 982,0 23.17,4.5 37,18.3333 41.5,41.5 0.67,327.333 0.67,654.667 0,982 -1.53,11.72 -6.69,21.39 -15.5,29 z"
       id="path2" /></g><g
     id="g4"><path
       style="opacity:1"
       fill="#878787"
       d="m 14.5,15.5 c 0.073,1.5269 -0.5937,2.5269 -2,3 -0.073,-1.5269 0.5937,-2.5269 2,-3 z"
       id="path3" /></g><g
     id="g5"><path
       style="opacity:1"
       fill="#327200"
       d="m 22.5,19.5 c 99.694,99.36 199.36,198.694 299,298 -48.276,9.057 -89.442,31.391 -123.5,67 -31.643,35.97 -48.976,77.97 -52,126 -3.637,38.632 0.696,76.299 13,113 30.978,73.295 85.811,116.462 164.5,129.5 71.82,1.142 143.653,1.642 215.5,1.5 70.176,-0.017 140.342,-0.35 210.5,-1 101.694,102.694 204.028,204.694 307,306 -7.15,7.07 -15.82,11.24 -26,12.5 -327.333,0.67 -654.667,0.67 -982,0 -23.1667,-4.5 -37,-18.33 -41.5,-41.5 -0.66667,-327.333 -0.66667,-654.667 0,-982 1.38905,-9.1114 4.7224,-17.4447 10,-25 1.451,-1.9641 3.2843,-3.2974 5.5,-4 z"
       id="path4" /></g><g
     id="g6"><path
       style="opacity:1"
       fill="#8b8b8b"
       d="m 1070.5,23.5 c 1.41,0.4731 2.07,1.4731 2,3 -1.41,-0.4731 -2.07,-1.4731 -2,-3 z"
       id="path5" /></g><g
     id="g7"><path
       style="opacity:1"
       fill="#656565"
       d="m 2.5,35.5 c 0.09047,2.6522 -0.57619,4.9855 -2,7 -0.090474,-2.6522 0.57619,-4.9855 2,-7 z"
       id="path6" /></g><g
     id="g8"><path
       style="opacity:1"
       fill="#040505"
       d="m 321.5,317.5 c 144.267,-0.496 288.6,0.004 433,1.5 25.73,3.799 50.063,11.799 73,24 70.403,42.275 105.403,104.775 105,187.5 1.327,26.483 -1.507,52.483 -8.5,78 -28.613,83.77 -86.779,132.103 -174.5,145 -70.158,0.65 -140.324,0.983 -210.5,1 C 467.153,754.642 395.32,754.142 323.5,753 244.811,739.962 189.978,696.795 159,623.5 c -12.304,-36.701 -16.637,-74.368 -13,-113 3.024,-48.03 20.357,-90.03 52,-126 34.058,-35.609 75.224,-57.943 123.5,-67 z"
       id="path7" /></g><g
     id="g9"><path
       style="opacity:1"
       fill="#a4a4a4"
       d="m 329.5,325.5 c 139.667,-0.167 279.334,0 419,0.5 74.305,10.737 127.805,49.904 160.5,117.5 7.79,18.49 12.79,37.823 15,58 6.781,49.483 -0.552,96.483 -22,141 -32.217,57.199 -80.717,91.366 -145.5,102.5 -142.321,1.642 -284.654,1.976 -427,1 -63.089,-8.106 -111.922,-38.606 -146.5,-91.5 -15.421,-25.926 -25.087,-53.926 -29,-84 -0.667,-23 -0.667,-46 0,-69 10.4,-74.71 49.566,-128.21 117.5,-160.5 18.888,-7.718 38.222,-12.885 58,-15.5 z"
       id="path8" /></g><g
     id="g10"><path
       style="opacity:1"
       fill="#8b8b8b"
       d="m 23.5,1070.5 c 1.5269,-0.07 2.5269,0.59 3,2 -1.5269,0.07 -2.5269,-0.59 -3,-2 z"
       id="path9" /></g></g></svg>
